<svg id="apreton_de_manos" data-name="apreton de manos" xmlns="http://www.w3.org/2000/svg" xmlns:xlink="http://www.w3.org/1999/xlink" width="101.747" height="100.392" viewBox="0 0 101.747 100.392">
  <defs>
    <linearGradient id="linear-gradient" x1="0.5" x2="0.5" y2="1" gradientUnits="objectBoundingBox">
      <stop offset="0" stop-color="#deac00"/>
      <stop offset="1" stop-color="#ffe792"/>
    </linearGradient>
  </defs>
  <path id="Trazado_123" data-name="Trazado 123" d="M101.332,122.525,84.3,100.4a2,2,0,0,0-2.652-.466l-11,6.993H56.315a1.977,1.977,0,0,0-.549.092l-11.118,3.2-11.537-3.156L21.9,99.937a1.994,1.994,0,0,0-2.623.43L.442,123.7a2,2,0,0,0,.252,2.765l9.873,8.5L19.423,146.9a7.044,7.044,0,0,0,4.432,11.833,7.1,7.1,0,0,0-.082,1.078,7.051,7.051,0,0,0,7.051,7.051l.075,0c0,.048,0,.1,0,.144a7.05,7.05,0,0,0,7.051,7.051,7.194,7.194,0,0,0,1.1-.086,7.051,7.051,0,0,0,12,4.293l1.078-1.078.453.365a7.047,7.047,0,0,0,11.949-5.178,7.039,7.039,0,0,0,7.157-7.153,7.045,7.045,0,0,0,7.156-7.16,7.047,7.047,0,0,0,6.023-10.887l6.467-13.544,9.723-8.367a2,2,0,0,0,.279-2.729ZM21.263,104.26l8.061,5.126L11.789,130.749,4.762,124.7ZM22.4,149.554l2.433-2.433c.074-.074.151-.144.231-.209a3.054,3.054,0,0,1,1.662-.675l.052,0c.087-.007.174-.012.262-.011a3.042,3.042,0,0,1,2.183.959,3.136,3.136,0,0,1-.135,4.34l-2.359,2.359a3.06,3.06,0,1,1-4.328-4.328Zm6.259,12.417a3.059,3.059,0,0,1,0-4.328l4.717-4.717a3.093,3.093,0,0,1,3.479-.6,3.05,3.05,0,0,1,1.686,3.16,3.23,3.23,0,0,1-.911,1.844l-4.643,4.642a3.06,3.06,0,0,1-4.328,0Zm7.123,7.192a3.059,3.059,0,0,1,0-4.328l4.717-4.717a3.1,3.1,0,0,1,3.7-.485,3.045,3.045,0,0,1,1.461,3.093,3.233,3.233,0,0,1-.907,1.8l-4.642,4.642a3.06,3.06,0,0,1-4.328,0Zm8.114,6.272a3.064,3.064,0,0,1,0-4.328l2.433-2.433c.074-.074.151-.143.23-.208l.005,0a3.05,3.05,0,0,1,1.357-.63l.035,0c.085-.016.172-.028.259-.036.035,0,.07,0,.106-.005.071,0,.142-.009.214-.008a3.041,3.041,0,0,1,2.183.959,2.761,2.761,0,0,1,.2.232,3.159,3.159,0,0,1-.345,4.12l-2.347,2.347a3.064,3.064,0,0,1-4.328,0ZM81.114,153.17a3.063,3.063,0,0,1-4.328,0,1.813,1.813,0,0,0-.136-.122L63.822,140.084a2,2,0,0,0-2.836,2.807l12.968,13.1,0,0a3.061,3.061,0,1,1-4.328,4.328l-8.675-8.765a2,2,0,0,0-2.836,2.807L66.66,163a1.89,1.89,0,0,0,.14.156,3.061,3.061,0,1,1-4.329,4.328L57.737,162.7a2,2,0,1,0-2.836,2.806l4.6,4.65a1.779,1.779,0,0,0,.141.157,3.06,3.06,0,1,1-4.328,4.328,4.413,4.413,0,0,0-.453-.361c-.13-.1-.165-.168-.1-.327s.165-.306.231-.467c.073-.18.132-.366.189-.552a7.193,7.193,0,0,0,.258-3.069,6.979,6.979,0,0,0-5.948-6.006,7.116,7.116,0,0,0-1.709-6.421,7,7,0,0,0-5.026-2.205h-.21a6.982,6.982,0,0,0-6.912-7.192,7.175,7.175,0,0,0-1.7.181,7.025,7.025,0,0,0-11.658-4.175l-7.712-10.392,18.45-22.478,5.88,1.608-7.68,13.551a7.052,7.052,0,0,0,2.659,9.61q.154.087.311.166l.024.012a7.1,7.1,0,0,0,.846.355,7.05,7.05,0,0,0,8.429-3.19l4.991-8.807,8.911.632,23.728,23.727a3.065,3.065,0,0,1,0,4.328Zm.827-9.145L59.681,121.766a1.766,1.766,0,0,0-.132-.121,2,2,0,0,0-1.137-.458l-10.91-.774a2.028,2.028,0,0,0-1.877,1.007l-5.611,9.9a3.061,3.061,0,1,1-5.325-3.018l7.49-13.219,3.035-.873.06-.02L56.6,110.92H70.289l17.087,21.722ZM89.99,129.51l-15.8-20.1,8.065-5.129,14.765,19.179Zm0,0" transform="translate(0.001 -79.927)" fill="url(#linear-gradient)"/>
  <path id="Trazado_124" data-name="Trazado 124" d="M302.14,46.49a1.99,1.99,0,0,0,1.411-.585l13.628-13.628a2,2,0,0,0-2.822-2.822L300.729,43.084a2,2,0,0,0,1.41,3.406Zm0,0" transform="translate(-240.499 -23.233)" fill="url(#linear-gradient)"/>
  <path id="Trazado_125" data-name="Trazado 125" d="M137.408,45.906a2,2,0,1,0,2.822-2.822L126.6,29.456a2,2,0,0,0-2.822,2.822Zm0,0" transform="translate(-98.713 -23.233)" fill="url(#linear-gradient)"/>
  <path id="Trazado_126" data-name="Trazado 126" d="M247.956,55.967a2,2,0,0,0,1.995-2V42.694a2,2,0,1,0-3.99,0V53.972A2,2,0,0,0,247.956,55.967Zm0,0" transform="translate(-197.082 -32.71)" fill="url(#linear-gradient)"/>
  <path id="Trazado_127" data-name="Trazado 127" d="M246.135,3.253A1.994,1.994,0,1,0,249.19.907a1.994,1.994,0,0,0-3.055,2.346Zm0,0" transform="translate(-197.102 -0.5)" fill="url(#linear-gradient)"/>
</svg>
