<svg xmlns="http://www.w3.org/2000/svg" xmlns:xlink="http://www.w3.org/1999/xlink" width="85.338" height="85.338" viewBox="0 0 85.338 85.338">
  <defs>
    <linearGradient id="linear-gradient" x1="0.5" x2="0.5" y2="1" gradientUnits="objectBoundingBox">
      <stop offset="0" stop-color="#deac00"/>
      <stop offset="1" stop-color="#ffe792"/>
    </linearGradient>
  </defs>
  <path id="deporte" d="M42.669,0A42.669,42.669,0,1,0,85.338,42.669,42.669,42.669,0,0,0,42.669,0ZM75.713,20.467l-2.957,12.57L57.177,38.23,44.091,27.763V12.341L59.025,6.368a40.065,40.065,0,0,1,16.688,14.1Zm.238,44.028-14.1,2.227-7.68-10.146,3.913-15.645L73.485,35.8l8.825,10.59a39.565,39.565,0,0,1-6.359,18.108Zm-52.4,2.237L9.387,64.495A39.57,39.57,0,0,1,3.029,46.382l8.819-10.59,15.406,5.134L31.167,56.58ZM2.857,42.139A39.567,39.567,0,0,1,7.524,23.963l2.307,9.814ZM33.823,55.47,30.05,40.362,42.669,30.268l12.622,10.1-3.776,15.1Zm41.684-21.7,2.307-9.814a39.565,39.565,0,0,1,4.667,18.175ZM55.147,4.857,42.669,9.848,30.124,4.88a39.679,39.679,0,0,1,25.022-.023ZM26.244,6.4l15,5.945V27.763L28.161,38.23,12.582,33.037,9.625,20.467A40.074,40.074,0,0,1,26.244,6.4ZM11.764,67.75l11.562,1.826,6.992,10.952A39.955,39.955,0,0,1,11.764,67.75ZM34.4,81.623,25.908,68.336l7.516-10.021h18.49l7.623,10.07-7.4,12.961A39.7,39.7,0,0,1,34.4,81.63Zm21.7-1.464L62.155,69.55l11.425-1.8A39.978,39.978,0,0,1,56.093,80.159Zm0,0" fill="url(#linear-gradient)"/>
</svg>
