<svg xmlns="http://www.w3.org/2000/svg" xmlns:xlink="http://www.w3.org/1999/xlink" width="102.809" height="107.011" viewBox="0 0 102.809 107.011">
  <defs>
    <linearGradient id="linear-gradient" x1="0.5" x2="0.5" y2="1" gradientUnits="objectBoundingBox">
      <stop offset="0" stop-color="#deac00"/>
      <stop offset="1" stop-color="#ffe792"/>
    </linearGradient>
  </defs>
  <g id="Grupo_36" data-name="Grupo 36" transform="translate(-0.091 0.1)">
    <path id="Trazado_145" data-name="Trazado 145" d="M96.739,247.763a6.518,6.518,0,0,0-2.538.529,2.192,2.192,0,0,1-.846.159,1.184,1.184,0,0,1-.793-.238,7.127,7.127,0,0,0-4.469-1.613,8.208,8.208,0,0,0-5.368,2.142l-.5.45a93.769,93.769,0,0,1-8.752,6.981,11.189,11.189,0,0,1-6.32,2.221,9.4,9.4,0,0,1-4.389-1.163c-3.094-1.639-6.373-3.094-9.519-4.469-1.534-.687-3.147-1.375-4.68-2.115a19.611,19.611,0,0,0-17.187,0c-2.935,1.375-5.949,2.724-8.858,4.046-1.084.476-2.142.978-3.226,1.454-.212.106-.423.159-.608.238l-.238.079-.37.132-.238-.317c-.026-.026-.053-.079-.079-.106a.923.923,0,0,1-.159-.238c-.4-.82-.793-1.639-1.19-2.433l-.476-.978c-.635-1.322-1.163-1.507-1.613-1.507a3.259,3.259,0,0,0-1.4.423c-4.151,2.01-8.25,3.993-11.37,5.526a3.661,3.661,0,0,0-.873.529,1.408,1.408,0,0,0-.529,1.534,1.317,1.317,0,0,0,1.084,1.111h.185a3.43,3.43,0,0,0,1.454-.317c2.089-.978,4.178-1.983,6.187-2.988l2.618-1.269c.291-.132.555-.264.873-.4.132-.053.291-.132.45-.185l.476-.212,12.19,25.173-.873.45c-.238.132-.45.238-.661.344l-2.935,1.428c-2.062.978-4.178,2.01-6.24,3.041a2.123,2.123,0,0,0-1.216,1.375,1.449,1.449,0,0,0,.344,1.243,4.294,4.294,0,0,0,.5.45c.053.026.079.079.132.106h.9a1.566,1.566,0,0,1,.212-.106c1.322-.635,2.644-1.3,3.993-1.93,2.75-1.322,5.5-2.644,8.25-3.993,1.349-.661,1.587-1.375.952-2.75-.132-.317-.291-.635-.45-.978l-.661-1.4.952.106a2.418,2.418,0,0,0,.423.026,5.889,5.889,0,0,1,.714.079c2.459.5,4.918,1,7.351,1.481,6.822,1.375,13.909,2.8,20.836,4.257a25.886,25.886,0,0,0,5.209.555,21.221,21.221,0,0,0,13.961-5.262c4.2-3.543,8.435-7.192,12.534-10.709l3.094-2.644c2.7-2.327,5.5-4.733,8.224-7.139a5.27,5.27,0,0,0,1.692-4.151A6.145,6.145,0,0,0,96.739,247.763ZM67.468,261.831l.37-.106c.555-.159,1.111-.317,1.666-.45a16.4,16.4,0,0,0,3.437-1.163,36.9,36.9,0,0,0,5.5-3.675c1.481-1.137,2.909-2.353,4.31-3.517.714-.608,1.454-1.216,2.168-1.825a4.5,4.5,0,0,1,2.882-1.243,5.086,5.086,0,0,1,2.433.74l.9.5-.925.45a3.1,3.1,0,0,0-.291.132,1.219,1.219,0,0,0-.264.132c-2.909,2.353-5.791,4.707-8.673,7.06l-5.553,4.522a12.723,12.723,0,0,1-7.4,3.041l-.555.026v-4.627Zm31.149-5.685c-1.375,1.19-2.75,2.38-4.1,3.543l-1.587,1.349-5.341,4.548L75.454,275.977a18.3,18.3,0,0,1-12.11,4.68,22.567,22.567,0,0,1-4.151-.423c-10.207-2.062-21.074-4.284-32.127-6.558a2.132,2.132,0,0,1-1.4-.978c-1.692-3.385-3.358-6.849-5-10.207l-.925-1.93a3.206,3.206,0,0,1-.132-.37.376.376,0,0,0-.053-.159l-.132-.423,1.507-.687c.793-.37,1.587-.714,2.38-1.084l1.957-.9c2.618-1.19,5.209-2.38,7.827-3.543a15.823,15.823,0,0,1,13.591,0c3.543,1.587,7.139,3.226,10.6,4.839,1.481.688,2.962,1.349,4.469,2.036a2.891,2.891,0,0,1,.4.212,3.651,3.651,0,0,1-1.481,7.007,4.461,4.461,0,0,1-1.322-.212c-2.538-.846-5.1-1.719-7.562-2.538-1.031-.344-2.089-.714-3.12-1.058l-.952-.317c-.687-.238-1.428-.476-2.115-.714a2.576,2.576,0,0,0-.74-.132,1.5,1.5,0,0,0-1.481,1,1.417,1.417,0,0,0,.053,1.137,1.873,1.873,0,0,0,1.111.925c4.284,1.481,8.99,3.041,14.385,4.839a5.654,5.654,0,0,0,1.772.291,7.948,7.948,0,0,0,2.75-.555,6.087,6.087,0,0,1,2.062-.423h.159c.264,0,.529.026.793.026a17.822,17.822,0,0,0,11.82-4.5c4.945-4.178,10.1-8.3,15.072-12.3l1.058-.846a4.947,4.947,0,0,1,2.565-1.031h.159a2.559,2.559,0,0,1,2.406,1.9A2.813,2.813,0,0,1,98.617,256.146Z" transform="translate(0 -181.467)" fill="url(#linear-gradient)"/>
    <path id="Trazado_146" data-name="Trazado 146" d="M44.514,27.347a1.46,1.46,0,0,0,1.375,1.031,1.975,1.975,0,0,0,.529-.079,1.536,1.536,0,0,0,1-1.983c-.079-.37-.185-.74-.291-1.084A16.983,16.983,0,0,1,63.262,3.073a16.232,16.232,0,0,1,3.57.4A16.954,16.954,0,0,1,63.711,37h-.476a23.641,23.641,0,0,1-4.733-.82c-.5-.132-1-.238-1.534-.37a3.47,3.47,0,0,0-.714-.079,1.454,1.454,0,0,0-1.534.978c-.45,1.243.582,1.851,1.243,2.115a19.591,19.591,0,0,0,7.3,1.428,21.15,21.15,0,0,0,3.385-.291A20.173,20.173,0,0,0,63.341-.1,20.192,20.192,0,0,0,43.4,23.3,21.437,21.437,0,0,0,44.514,27.347Z" transform="translate(-31.676)" fill="url(#linear-gradient)"/>
    <path id="Trazado_147" data-name="Trazado 147" d="M229.325,133.224l.9-.079c.688-.053,1.4-.106,2.089-.212a19.323,19.323,0,0,0,2.618-.582,20.185,20.185,0,0,0,13.327-26.363,1.814,1.814,0,0,0-1.587-1.349,1.343,1.343,0,0,0-.45.079c-.9.291-1.243,1.137-.952,2.274a4.934,4.934,0,0,0,.185.582l.026.106a17.614,17.614,0,0,1,.714,7.615,16.9,16.9,0,0,1-20.281,14.385,16.819,16.819,0,0,1-13.248-19.62c1.19-6.584,5.13-11.026,11.714-13.195a15.571,15.571,0,0,1,4.918-.793,18.082,18.082,0,0,1,5.87,1.031,3.043,3.043,0,0,0,1.031.185,1.385,1.385,0,0,0,1.454-1.031c.45-1.269-.74-1.9-1.481-2.168A19.842,19.842,0,0,0,229.4,92.9a22.876,22.876,0,0,0-2.327.132,20.285,20.285,0,0,0-12.243,6.055,20.092,20.092,0,0,0-.264,27.632A20.329,20.329,0,0,0,229.325,133.224Z" transform="translate(-153.818 -68.409)" fill="url(#linear-gradient)"/>
    <path id="Trazado_148" data-name="Trazado 148" d="M103.674,46.382a3.437,3.437,0,0,1-2.327.9,4.228,4.228,0,0,1-1.243-.212,3.007,3.007,0,0,1-2.142-2.538c-.185-1.058-.74-1.692-1.56-1.692a.732.732,0,0,0-.238.026c-.952.132-1.454.873-1.322,2.062A6,6,0,0,0,98.57,49.9a2.42,2.42,0,0,1,1.163,1.243c.45,1.163,1.111,1.3,1.56,1.3h0c.74,0,1.243-.423,1.56-1.3a2.152,2.152,0,0,1,1-1.163,5.93,5.93,0,0,0,3.887-6.108,6.008,6.008,0,0,0-4.76-5.236,11.483,11.483,0,0,0-1.428-.238c-.4-.053-.82-.106-1.243-.185a2.913,2.913,0,0,1-2.3-2.512,2.709,2.709,0,0,1,1.772-2.724,3.65,3.65,0,0,1,1.56-.37,3.357,3.357,0,0,1,3.279,2.8c.238,1.058.74,1.613,1.534,1.613A.732.732,0,0,0,106.4,37c1.216-.132,1.4-1.19,1.349-2.062a5.9,5.9,0,0,0-4.442-5.262l-.317-.106-.026-.317c0-.106-.026-.212-.026-.317a3.861,3.861,0,0,0-.079-.582A1.607,1.607,0,0,0,101.294,27h0a1.441,1.441,0,0,0-1.481,1.3,1.871,1.871,0,0,1-1.375,1.745,5.86,5.86,0,0,0-3.57,5.9,5.97,5.97,0,0,0,4.389,5.183,15.079,15.079,0,0,0,1.639.291l1.111.159a3.023,3.023,0,0,1,2.486,2.062A2.5,2.5,0,0,1,103.674,46.382Z" transform="translate(-69.681 -19.934)" fill="url(#linear-gradient)"/>
    <path id="Trazado_149" data-name="Trazado 149" d="M267.253,126.983a4.228,4.228,0,0,1,1.243.212,2.969,2.969,0,0,1,2.142,2.538c.159,1.058.74,1.666,1.56,1.666a.732.732,0,0,0,.238-.026c.952-.132,1.454-.873,1.322-2.062a6.03,6.03,0,0,0-3.728-4.971,2.531,2.531,0,0,1-1.163-1.243c-.45-1.163-1.111-1.3-1.587-1.3-.74,0-1.243.45-1.56,1.3a2.1,2.1,0,0,1-.978,1.163,6,6,0,0,0-3.887,6.108,6.068,6.068,0,0,0,4.76,5.236,11.485,11.485,0,0,0,1.428.238c.37.053.767.106,1.137.185a3,3,0,0,1,2.327,1.957,2.406,2.406,0,0,1-.767,2.671,3.388,3.388,0,0,1-2.353.952,3.724,3.724,0,0,1-1.19-.185,3.064,3.064,0,0,1-2.221-2.618c-.264-1.587-1.19-1.587-1.507-1.587a1.626,1.626,0,0,0-.344.026c-1.137.159-1.322,1.19-1.269,2.036a5.535,5.535,0,0,0,.106.74,6.354,6.354,0,0,0,4.363,4.522l.317.106.026.582a.815.815,0,0,0,.026.264c.106,1.058.661,1.666,1.507,1.719h.079c1.084,0,1.481-1.058,1.613-1.666a1.932,1.932,0,0,1,1.058-1.243,5.893,5.893,0,0,0-.767-11.238,14.1,14.1,0,0,0-1.587-.291c-.344-.053-.714-.079-1.058-.159a3.026,3.026,0,0,1-2.459-1.957,2.464,2.464,0,0,1,.688-2.7A3.839,3.839,0,0,1,267.253,126.983Z" transform="translate(-191.799 -89.667)" fill="url(#linear-gradient)"/>
    <path id="Trazado_150" data-name="Trazado 150" d="M65.258,120h-.026a1.589,1.589,0,0,0-1.534,1.534,1.536,1.536,0,0,0,1.481,1.587h.053a1.6,1.6,0,0,0,1.587-1.534A1.661,1.661,0,0,0,65.258,120Z" transform="translate(-46.787 -88.343)" fill="url(#linear-gradient)"/>
    <path id="Trazado_151" data-name="Trazado 151" d="M330.687,116.42h0a1.613,1.613,0,0,0,1.534-1.56,1.535,1.535,0,0,0-1.507-1.56h-.026a1.609,1.609,0,0,0-1.137.5,1.543,1.543,0,0,0-.45,1.084A1.657,1.657,0,0,0,330.687,116.42Z" transform="translate(-242.012 -83.415)" fill="url(#linear-gradient)"/>
    <path id="Trazado_152" data-name="Trazado 152" d="M53.485,356.92a1.493,1.493,0,0,0,1.084-.5,1.533,1.533,0,0,0-1.111-2.618h-.026a1.636,1.636,0,0,0-1.534,1.587,1.653,1.653,0,0,0,1.56,1.534Z" transform="translate(-38.108 -260.321)" fill="url(#linear-gradient)"/>
    <path id="Trazado_153" data-name="Trazado 153" d="M270.767,269.913c2.829-2.3,5.685-4.627,8.514-6.928a2.9,2.9,0,0,0-1-.185,3.554,3.554,0,0,0-2.195.978c-.714.608-1.454,1.216-2.168,1.824-1.4,1.19-2.856,2.406-4.363,3.57a36.37,36.37,0,0,1-5.659,3.781,18.005,18.005,0,0,1-3.649,1.243c-.423.106-.82.212-1.243.344v2.671a11.937,11.937,0,0,0,6.24-2.776C267.065,272.927,268.916,271.42,270.767,269.913Z" transform="translate(-190.448 -193.384)" fill="url(#linear-gradient)"/>
  </g>
</svg>
