<svg id="Grupo_35" data-name="Grupo 35" xmlns="http://www.w3.org/2000/svg" xmlns:xlink="http://www.w3.org/1999/xlink" width="76.59" height="79.198" viewBox="0 0 76.59 79.198">
  <defs>
    <linearGradient id="linear-gradient" x1="0.5" x2="0.5" y2="1" gradientUnits="objectBoundingBox">
      <stop offset="0" stop-color="#deac00"/>
      <stop offset="1" stop-color="#ffe792"/>
    </linearGradient>
  </defs>
  <path id="Trazado_132" data-name="Trazado 132" d="M38.061,159.243c3.9-3.349,7.734-6.632,11.568-9.915l5.685-4.892c.947-.815,1.41-.815,2.358,0l17.848,15.27a2.036,2.036,0,0,1,.771,1.631c-.022,9.431,0,18.861-.022,28.292,0,1.278-.441,1.719-1.763,1.719H1.617c-1.5,0-1.895-.375-1.895-1.895q0-13.948-.022-27.873A2.383,2.383,0,0,1,.625,159.6Q9.483,152.06,18.3,144.48c1.014-.859,1.432-.881,2.424-.022q8.329,7.139,16.658,14.256A4.764,4.764,0,0,1,38.061,159.243Zm1.3,29.393H73.624a2.054,2.054,0,0,0,.044-.308c0-8.748,0-17.473-.022-26.221a1.523,1.523,0,0,0-.485-.947c-5.09-4.407-10.224-8.77-15.336-13.154-.441-.375-.859-.727-1.3-1.1-.331.286-.617.507-.881.727-5.244,4.495-10.466,8.99-15.732,13.463a1.484,1.484,0,0,0-.573,1.256c.022,5.266,0,10.554,0,15.82C39.361,181.652,39.361,185.111,39.361,188.636ZM19.6,146.9c-.308.242-.551.441-.793.661q-7.9,6.775-15.776,13.507a1.54,1.54,0,0,0-.595,1.322q.033,12.692.022,25.405v.859H36.7a1.832,1.832,0,0,0,.044-.286q0-13.154-.022-26.309a1.291,1.291,0,0,0-.463-.859c-4.649-4.01-9.3-7.976-13.948-11.964C21.4,148.446,20.522,147.7,19.6,146.9Z" transform="translate(0.3 -112.148)" fill="url(#linear-gradient)"/>
  <path id="Trazado_133" data-name="Trazado 133" d="M136.834,9.457c-.859,10.444-4.87,19.258-13.353,25.736-.925.705-1.322.705-2.27-.022A32.876,32.876,0,0,1,108.344,12.7c-.132-.969-.308-1.961-.463-2.931a1.35,1.35,0,0,1,.992-1.741,40.677,40.677,0,0,0,12.383-7.4c.881-.749,1.344-.749,2.247.022A41.356,41.356,0,0,0,135.8,8.025C136.635,8.311,136.9,8.73,136.834,9.457Zm-2.8.661A38.677,38.677,0,0,1,122.776,3.4c-.441-.375-.683-.088-.969.154a39.859,39.859,0,0,1-7.536,4.98c-1.168.573-2.38,1.1-3.547,1.653.4,8.549,5.927,19.126,11.744,22.475C129.606,26.908,133.22,19.284,134.035,10.118Z" transform="translate(-84.018 -0.062)" fill="url(#linear-gradient)"/>
  <path id="Trazado_134" data-name="Trazado 134" d="M249.275,9.21c-.551-.529-1.146-1.1-1.675-1.631,1.234-1.234,2.468-2.446,3.7-3.68.485.529,1.058,1.146,1.586,1.7Z" transform="translate(-192.978 -3.054)" fill="url(#linear-gradient)"/>
  <path id="Trazado_135" data-name="Trazado 135" d="M247.9,81.419c.507-.507,1.08-1.124,1.675-1.719,1.212,1.234,2.424,2.424,3.658,3.68-.617.529-1.256,1.058-1.873,1.586C250.3,83.908,249.112,82.675,247.9,81.419Z" transform="translate(-193.212 -62.153)" fill="url(#linear-gradient)"/>
  <path id="Trazado_136" data-name="Trazado 136" d="M59.8,50.812V48.3H65v2.512Z" transform="translate(-46.558 -37.671)" fill="url(#linear-gradient)"/>
  <path id="Trazado_137" data-name="Trazado 137" d="M269.078,48.3v2.534H263.9V48.3Z" transform="translate(-205.686 -37.671)" fill="url(#linear-gradient)"/>
  <path id="Trazado_138" data-name="Trazado 138" d="M78.725,9.612C77.624,8.488,76.434,7.3,75.2,6.064c.573-.507,1.19-1.08,1.719-1.564,1.124,1.124,2.314,2.336,3.5,3.525C79.959,8.466,79.342,9.039,78.725,9.612Z" transform="translate(-58.564 -3.522)" fill="url(#linear-gradient)"/>
  <path id="Trazado_139" data-name="Trazado 139" d="M77.386,85.634c-.507-.507-1.08-1.1-1.586-1.608L79.325,80.5c.485.463,1.08,1.058,1.608,1.586C79.766,83.254,78.576,84.466,77.386,85.634Z" transform="translate(-59.032 -62.776)" fill="url(#linear-gradient)"/>
  <path id="Trazado_140" data-name="Trazado 140" d="M198.86,230.756a6.018,6.018,0,0,1-1.168-.705c-1.19-1.146-2.358-2.314-3.5-3.481a1.312,1.312,0,0,1,0-2.093c.264-.286.529-.551.815-.815s.529-.485.308-.969c-.22-.463-.441-.683-.969-.661-2.8.132-2.688-.617-2.666-2.732.022-1.212,0-2.424,0-3.636a1.372,1.372,0,0,1,1.542-1.586c.353,0,.705-.022,1.08,0a.8.8,0,0,0,.947-.551.841.841,0,0,0-.242-1.058c-1.807-1.917-1.807-1.961.044-3.812.859-.859,1.7-1.719,2.578-2.556a1.35,1.35,0,0,1,2.2-.044c.264.242.507.507.749.749.264.264.463.573.969.331a.984.984,0,0,0,.683-1.036c.044-2.556.11-2.6,2.688-2.6h3.7a1.369,1.369,0,0,1,1.542,1.52c0,.375.022.771,0,1.146a.764.764,0,0,0,.529.881.816.816,0,0,0,1.058-.22c1.961-1.829,1.983-1.829,3.878.066l2.512,2.512a1.369,1.369,0,0,1,.022,2.27,8.015,8.015,0,0,1-.749.749.709.709,0,0,0-.264.969.836.836,0,0,0,.9.617c3.063-.132,2.71.771,2.688,2.842v3.459c0,1.146-.463,1.608-1.586,1.631-.353,0-.705.022-1.08,0-.419-.022-.705.044-.881.507a.872.872,0,0,0,.2,1.08c1.851,1.961,1.851,1.983-.044,3.878l-2.512,2.512c-.859.837-1.454.837-2.336-.022-.242-.22-.485-.463-.705-.705-.264-.286-.507-.507-.969-.286a.972.972,0,0,0-.661.969c-.066,2.622-.088,2.644-2.732,2.644H203.8c-1.08,0-1.542-.485-1.564-1.564,0-.353-.022-.705,0-1.08,0-.4,0-.705-.485-.9a.913.913,0,0,0-1.146.242A14.511,14.511,0,0,1,198.86,230.756Zm8.681-.837c-.2-1.807.705-2.732,2.225-3.371a3.036,3.036,0,0,1,3.834.749c.661-.617,1.256-1.19,1.917-1.785a3.589,3.589,0,0,1,2.534-6.148v-2.622c-1.763.154-2.71-.705-3.349-2.247a3.041,3.041,0,0,1,.771-3.834c-.639-.661-1.19-1.256-1.785-1.917a3.565,3.565,0,0,1-6.125-2.512h-2.644c.176,1.763-.705,2.71-2.225,3.349a2.991,2.991,0,0,1-3.79-.749c-.661.639-1.256,1.19-1.895,1.807a3.577,3.577,0,0,1-2.556,6.1v2.644c1.763-.176,2.71.705,3.349,2.247a3,3,0,0,1-.749,3.812c.639.661,1.19,1.256,1.807,1.917a3.565,3.565,0,0,1,6.125,2.534C205.779,229.919,206.594,229.919,207.541,229.919Z" transform="translate(-149.371 -158.674)" fill="url(#linear-gradient)"/>
  <path id="Trazado_141" data-name="Trazado 141" d="M53.014,218.352v2.4c-.022,1.036-.485,1.52-1.52,1.542-.375,0-.771.022-1.146,0-.419-.022-.705.044-.881.507a.872.872,0,0,0,.2,1.08c1.851,1.961,1.829,1.983-.044,3.878l-2.446,2.446c-.9.881-1.5.9-2.38.022-.242-.22-.485-.463-.705-.705-.264-.308-.507-.507-.969-.286-.419.2-.727.4-.639.9v.088c-.088,2.6-.11,2.622-2.754,2.622-1.212,0-2.424.022-3.636,0-1.08-.022-1.542-.485-1.564-1.564,0-.353-.022-.705,0-1.08.022-.4,0-.727-.485-.881-.441-.154-.749-.2-1.08.176a9.344,9.344,0,0,1-1.08,1.014,1.238,1.238,0,0,1-1.785-.044c-1.256-1.212-2.512-2.468-3.724-3.724a1.243,1.243,0,0,1,0-1.851c.286-.331.617-.639.925-.947.286-.264.529-.485.308-.969-.22-.463-.441-.683-.969-.661-2.82.132-2.688-.617-2.666-2.71.022-1.19,0-2.358,0-3.548,0-1.212.463-1.675,1.719-1.675.308,0,.595-.022.9,0,.441.022.749-.022.947-.529a.848.848,0,0,0-.264-1.058c-1.785-1.917-1.785-1.961.066-3.812.881-.881,1.741-1.763,2.622-2.622a1.312,1.312,0,0,1,2.093-.022c.286.264.551.529.815.815.264.264.463.573.969.331.441-.22.683-.419.661-.969-.11-2.8.573-2.71,2.8-2.666,1.19.022,2.358,0,3.547,0,1.124,0,1.586.485,1.586,1.608,0,.331.022.661,0,.992-.022.441.022.749.529.947a.869.869,0,0,0,1.058-.242c1.961-1.829,1.961-1.829,3.878.088.859.859,1.719,1.7,2.556,2.578a1.354,1.354,0,0,1,0,2.159,5.678,5.678,0,0,0-.793.837,1.589,1.589,0,0,0-.264.881c.044.463.353.705.9.705,2.688.066,2.688.088,2.688,2.754.022.375.022.793.022,1.19Zm-21.858-9.188-1.873,1.807a2.916,2.916,0,0,1,.837,3.525c-.617,1.631-1.542,2.71-3.459,2.512v2.666c1.763-.2,2.71.683,3.349,2.2a3.029,3.029,0,0,1-.815,3.9c.639.639,1.212,1.234,1.785,1.807,3-2.159,5.707-1.036,6.258,2.578h2.556c-.176-1.763.727-2.71,2.225-3.349a3.015,3.015,0,0,1,3.834.771c.661-.639,1.256-1.19,1.895-1.807a3.565,3.565,0,0,1,2.512-6.125V217.03a2.859,2.859,0,0,1-3.107-1.719c-.771-1.608-.992-3.085.507-4.3-.617-.661-1.168-1.278-1.785-1.939a3.067,3.067,0,0,1-3.944.793,3.053,3.053,0,0,1-2.181-3.305H37.128a2.837,2.837,0,0,1-1.608,3.041C33.955,210.376,32.391,210.706,31.157,209.164Z" transform="translate(-18.619 -158.94)" fill="url(#linear-gradient)"/>
  <path id="Trazado_142" data-name="Trazado 142" d="M161,58.054h-2.424c-.044-.066-.11-.11-.088-.154a1.823,1.823,0,0,0-1.058-2.005,3.48,3.48,0,0,1-1.586-3.041H158.4c.022.044.066.088.066.132.353.859.9,1.256,1.586,1.1a1.353,1.353,0,0,0,1.058-1.388c-.066-.727-.573-1.146-1.5-1.234a3.992,3.992,0,0,1-3.7-3.195,3.841,3.841,0,0,1,2.049-4.208c.881-.441.308-1.168.617-1.763h2.446c.022.044.088.088.066.132a1.823,1.823,0,0,0,1.058,2.005,3.479,3.479,0,0,1,1.586,3.041h-2.578c-.022-.044-.066-.088-.066-.132-.353-.859-.9-1.256-1.586-1.1a1.314,1.314,0,0,0-1.036,1.388c.066.727.573,1.146,1.5,1.234a3.969,3.969,0,0,1,3.7,3.195,3.8,3.8,0,0,1-2.049,4.208C160.733,56.688,161.306,57.415,161,58.054Z" transform="translate(-121.424 -32.993)" fill="url(#linear-gradient)"/>
  <path id="Trazado_143" data-name="Trazado 143" d="M240.8,246.21a6.6,6.6,0,1,1-6.61-6.61A6.616,6.616,0,0,1,240.8,246.21Zm-6.588,3.966a3.955,3.955,0,1,0-3.966-3.988A3.979,3.979,0,0,0,234.21,250.176Z" transform="translate(-177.384 -186.82)" fill="url(#linear-gradient)"/>
  <path id="Trazado_144" data-name="Trazado 144" d="M73.1,246.232A6.6,6.6,0,1,1,66.51,239.6,6.616,6.616,0,0,1,73.1,246.232Zm-6.566-3.966a3.955,3.955,0,1,0,3.944,4.01A3.964,3.964,0,0,0,66.532,242.266Z" transform="translate(-46.635 -186.82)" fill="url(#linear-gradient)"/>
</svg>
