<svg id="surface1" xmlns="http://www.w3.org/2000/svg" xmlns:xlink="http://www.w3.org/1999/xlink" width="103.315" height="94.656" viewBox="0 0 103.315 94.656">
  <defs>
    <linearGradient id="linear-gradient" x1="0.5" x2="0.5" y2="1" gradientUnits="objectBoundingBox">
      <stop offset="0" stop-color="#deac00"/>
      <stop offset="1" stop-color="#ffe792"/>
    </linearGradient>
  </defs>
  <path id="Trazado_130" data-name="Trazado 130" d="M94.719,265.543a8.57,8.57,0,0,0-7.154,13.309L75.411,291.006a8.526,8.526,0,0,0-12.875,4.57L46.561,293.9a8.559,8.559,0,1,0-15.778,5.322L13.812,315.184a8.73,8.73,0,1,0,2.345,2.508l16.971-15.965A8.513,8.513,0,0,0,46.2,297.308l15.975,1.679a8.561,8.561,0,1,0,15.653-5.555l12.154-12.154a8.583,8.583,0,1,0,4.733-15.735Zm-85.833,61.8a5.15,5.15,0,1,1,5.15-5.15A5.15,5.15,0,0,1,8.885,327.343Zm29.183-27.466a5.15,5.15,0,1,1,5.15-5.15A5.15,5.15,0,0,1,38.069,299.876Zm32.616,3.433a5.15,5.15,0,1,1,5.15-5.15A5.15,5.15,0,0,1,70.685,303.309Zm24.034-24.034a5.15,5.15,0,1,1,5.15-5.149A5.15,5.15,0,0,1,94.719,279.276Zm0,0" transform="translate(-0.001 -236.36)" fill="url(#linear-gradient)"/>
  <path id="Trazado_131" data-name="Trazado 131" d="M20.058,45.008a1.716,1.716,0,0,0,1.214-.5L35.508,30.269,43.736,38.5a1.718,1.718,0,0,0,2.428,0l17.67-17.67L78.928,35.922a1.717,1.717,0,0,0,2.428,0L111.041,6.236V8.959a1.717,1.717,0,1,0,3.433,0V2.092a1.7,1.7,0,0,0-.12-.6,1.863,1.863,0,0,0-.079-.173,1.717,1.717,0,0,0-.24-.356,1.51,1.51,0,0,0-.573-.436c-.016,0-.028-.02-.043-.025a1.72,1.72,0,0,0-.6-.119.577.577,0,0,1-.061-.009h-6.866a1.717,1.717,0,1,0,0,3.433h2.722L80.141,32.281,65.047,17.187a1.719,1.719,0,0,0-2.428,0L44.95,34.856l-8.227-8.228a1.719,1.719,0,0,0-2.428,0l-15.45,15.45a1.717,1.717,0,0,0,1.213,2.931Zm0,0" transform="translate(-16.323 -0.375)" fill="url(#linear-gradient)"/>
</svg>
