<svg id="XMLID_1_" xmlns="http://www.w3.org/2000/svg" xmlns:xlink="http://www.w3.org/1999/xlink" width="81.579" height="120.86" viewBox="0 0 81.579 120.86">
  <defs>
    <linearGradient id="linear-gradient" x1="0.5" x2="0.5" y2="1" gradientUnits="objectBoundingBox">
      <stop offset="0" stop-color="#deac00"/>
      <stop offset="1" stop-color="#ffe792"/>
    </linearGradient>
  </defs>
  <g id="XMLID_4_" transform="translate(0 18.871)">
    <path id="XMLID_154_" d="M0,158.2v69.317c0,11.225,9.257,18.227,22.628,22.068,12.418,3.579,16.294,7.944,18.107,10.533l.036.072.012-.012a.012.012,0,0,0,.012.012l.036-.072c1.8-2.577,5.69-6.942,18.1-10.521,13.372-3.853,22.628-10.843,22.628-22.068V158.26l.024-.06Zm80.386,1.527V227c0,10.9-8.994,17.69-21.984,21.436-12.06,3.483-15.829,7.718-17.595,10.235l-.036.072c0-.012-.012-.012-.012-.024,0,.012-.012.012-.012.024l-.024-.072c-1.765-2.517-5.535-6.752-17.595-10.235C10.163,244.694,1.169,237.906,1.169,227V159.727l-.024-.06H80.41Z" transform="translate(0 -158.2)" fill="url(#linear-gradient)"/>
    <path id="XMLID_153_" d="M273.867,459.072c-.06-.024-.107-.048-.167-.072A.31.31,0,0,1,273.867,459.072Z" transform="translate(-241.052 -423.119)" fill="url(#linear-gradient)"/>
    <path id="XMLID_152_" d="M294.036,424.6h0Z" transform="translate(-258.93 -392.822)" fill="url(#linear-gradient)"/>
    <path id="XMLID_151_" d="M253.712,470.55a4.621,4.621,0,0,0-2.612-.012A2.239,2.239,0,0,1,253.712,470.55Z" transform="translate(-221.148 -432.916)" fill="url(#linear-gradient)"/>
    <path id="XMLID_150_" d="M254.822,479.6c-.525.847-.525,1.431-1.622,1.539.012-.358.489-.191.5-.561.179.06-.012.119,0,.286C254.345,480.542,254.321,479.8,254.822,479.6Z" transform="translate(-222.997 -441.262)" fill="url(#linear-gradient)"/>
    <path id="XMLID_149_" d="M177.407,552.826l-.107-.143a3,3,0,0,0,.942-3.209,4.528,4.528,0,0,0-.155-.584,3.075,3.075,0,0,1,.036-2.159,3.479,3.479,0,0,0,.083-2.147l.155-.083a3.63,3.63,0,0,1-.083,2.29,2.918,2.918,0,0,0-.036,2.028c.06.167.107.37.167.6A3.225,3.225,0,0,1,177.407,552.826Z" transform="translate(-156.151 -498.42)" fill="url(#linear-gradient)"/>
    <path id="XMLID_148_" d="M196.778,498c.048.728-1.014,1.408-2.362,2.278-.406.262-.811.525-1.229.811a4.139,4.139,0,0,0-1.92,2.577l-.167-.024a4.349,4.349,0,0,1,2-2.72c.418-.286.823-.561,1.229-.823,1.241-.811,2.314-1.491,2.278-2.1Z" transform="translate(-168.305 -457.467)" fill="url(#linear-gradient)"/>
    <path id="XMLID_147_" d="M201.295,352.619l-.119.179a.952.952,0,0,1-1.074.394,1.084,1.084,0,0,0-.907.155l-.1-.155a1.322,1.322,0,0,1,1.038-.179.8.8,0,0,0,.907-.322l.119-.191Z" transform="translate(-175.35 -329.323)" fill="url(#linear-gradient)"/>
    <path id="XMLID_146_" d="M187.633,351.865a.526.526,0,0,1-.131.394.307.307,0,0,1-.227.119h-.024c-.322,0-.7-.406-.751-.441l.107-.143c.107.119.429.417.644.394a.166.166,0,0,0,.119-.06.509.509,0,0,0,.1-.25.657.657,0,0,0-.239-.322l.1-.155A.793.793,0,0,1,187.633,351.865Z" transform="translate(-164.253 -328.354)" fill="url(#linear-gradient)"/>
    <path id="XMLID_142_" d="M189.14,333.435a.569.569,0,0,1-.131.31c0-.024.012-.06.012-.084a.859.859,0,0,0-.585-1.026.606.606,0,0,0-.2-.036c-.8,0-1.646,1.431-1.67,1.491a.35.35,0,0,0-.048.334.168.168,0,0,0,.179.119.935.935,0,0,0,.441-.179,1.255,1.255,0,0,1,.728-.239,1.952,1.952,0,0,1,.274.024,2.026,2.026,0,0,0,.274.012.9.9,0,0,0,.346-.06.726.726,0,0,0,.561-.668Zm-1.384.012a.724.724,0,0,0,.191.5.2.2,0,0,1-.083-.012,1.481,1.481,0,0,0-.811.262.864.864,0,0,1-.358.155c-.012,0-.036,0-.036-.012a.182.182,0,0,1,.036-.143c.012-.012.811-1.372,1.515-1.408A.654.654,0,0,0,187.756,333.447Z" transform="translate(-164.245 -311.797)" fill="url(#linear-gradient)"/>
    <path id="XMLID_141_" d="M168.247,377.511c-.74-.525-.179-1.575-.239-2.111C168.51,375.507,167.7,376.8,168.247,377.511Z" transform="translate(-147.838 -349.491)" fill="url(#linear-gradient)"/>
    <path id="XMLID_140_" d="M269.9,446.477c.334-.131-.155-1.217.382-1.121C269.948,445.5,270.449,446.573,269.9,446.477Z" transform="translate(-237.705 -411.098)" fill="url(#linear-gradient)"/>
    <path id="XMLID_139_" d="M229.2,455.547c.131-.346.048-.3.131-.847C229.749,454.748,229.916,455.714,229.2,455.547Z" transform="translate(-201.86 -419.332)" fill="url(#linear-gradient)"/>
    <path id="XMLID_138_" d="M193.681,381.421c-.107.143-.441-.048-.62.286-.036.549.048.978.37,1.121-1.253-.179.2-2.111.131-2.529C193.92,380.694,193.383,381.326,193.681,381.421Z" transform="translate(-169.908 -353.807)" fill="url(#linear-gradient)"/>
    <path id="XMLID_137_" d="M175.414,367.505c-.847-.143-1.777-2.744-1.229-3.805.453.751-.37,2.338.608,2.815.322-.513.012-.954.382-1.264C175.343,366.086,174.782,366.8,175.414,367.505Z" transform="translate(-153.263 -339.187)" fill="url(#linear-gradient)"/>
    <path id="XMLID_136_" d="M176.449,401.189c-.286-.525-.763-2.195.131-2.111C175.936,399.555,176.4,400.366,176.449,401.189Z" transform="translate(-155.061 -370.342)" fill="url(#linear-gradient)"/>
    <path id="XMLID_135_" d="M185.7,400.7c.322-.441.346.632.99.286C186.89,401.309,185.674,401.094,185.7,400.7Z" transform="translate(-163.546 -371.679)" fill="url(#linear-gradient)"/>
    <path id="XMLID_134_" d="M216.694,406.286c-1.1-.68-1.92.895-2.994-.155.167-.6.5.155.751.286C214.952,406.381,216.157,405.129,216.694,406.286Z" transform="translate(-188.209 -376.262)" fill="url(#linear-gradient)"/>
    <path id="XMLID_133_" d="M212.177,419.791a3.487,3.487,0,0,1-1.61-1.133C210.376,418.276,211.747,419.493,212.177,419.791Z" transform="translate(-185.433 -387.525)" fill="url(#linear-gradient)"/>
    <path id="XMLID_132_" d="M228.538,439.371c-.441.907-.966-.227-1.372-.561-.072-.346.728.525.871.847.37-.1-.119-.31,0-.561C228.216,438.632,228.049,439.717,228.538,439.371Z" transform="translate(-200.065 -405.268)" fill="url(#linear-gradient)"/>
    <path id="XMLID_131_" d="M270.266,456.346c-.2-.072-.453-.06-.334.358-.286-.036-.072-.62,0-.7A.93.93,0,0,0,270.266,456.346Z" transform="translate(-237.606 -420.477)" fill="url(#linear-gradient)"/>
    <path id="XMLID_130_" d="M277.431,460.776c-.3-.74-1.276-.632-2.231-1.276h0C275.951,459.834,277.192,459.619,277.431,460.776Z" transform="translate(-242.373 -423.559)" fill="url(#linear-gradient)"/>
    <path id="XMLID_129_" d="M186.039,360.3h-.1A1.813,1.813,0,0,1,184.5,359.2l.155-.1a1.566,1.566,0,0,0,1.372,1.014Z" transform="translate(-162.492 -335.136)" fill="url(#linear-gradient)"/>
    <path id="XMLID_128_" d="M200.884,371.066a2.785,2.785,0,0,0,.871.334l-.036.191a2.619,2.619,0,0,1-1.074-.477,5.332,5.332,0,0,1-.871.131.377.377,0,0,1-.346-.179,1.543,1.543,0,0,1-.012-.966l.155.06a1.264,1.264,0,0,0-.012.787.233.233,0,0,0,.215.1,4.187,4.187,0,0,0,.859-.131,2.639,2.639,0,0,1,1.133-.1l-.048.191A2.139,2.139,0,0,0,200.884,371.066Z" transform="translate(-175.56 -344.823)" fill="url(#linear-gradient)"/>
    <path id="XMLID_127_" d="M290.96,424.512h-.024c-.012,0-.024-.012-.036-.012h.024A.044.044,0,0,1,290.96,424.512Z" transform="translate(-256.2 -392.734)" fill="url(#linear-gradient)"/>
    <path id="XMLID_123_" d="M181.242,731h-1.73l-.012,3.411h1.753a1.473,1.473,0,0,0,1.479-1.67C182.733,731.68,182.148,731,181.242,731Zm-.251,2.7-.632-.012.012-1.992h.728c.489,0,.775.37.763,1.026S181.564,733.7,180.991,733.7Z" transform="translate(-158.088 -662.674)" fill="url(#linear-gradient)"/>
    <path id="XMLID_122_" d="M222.6,733.7l-1.455-.012v-.835l1.312.012v-.632h-1.312l.012-.7h1.408l.131-.62-2.386-.012-.012,3.411,2.421.012Z" transform="translate(-194.022 -662.586)" fill="url(#linear-gradient)"/>
    <path id="XMLID_118_" d="M255.946,731h-1.634l-.012,3.411h.835v-1.276h1.038a1.1,1.1,0,0,0,1.133-1.062C257.33,731.406,256.793,731,255.946,731Zm-.036,1.5h-.775v-.883h.787c.31,0,.5.167.5.441C256.435,732.312,256.22,732.5,255.91,732.5Z" transform="translate(-223.966 -662.674)" fill="url(#linear-gradient)"/>
    <path id="XMLID_114_" d="M293.677,730.1a1.808,1.808,0,1,0,1.765,1.813A1.7,1.7,0,0,0,293.677,730.1Zm-.012,2.875c-.561,0-.883-.418-.883-1.074s.334-1.062.895-1.062.883.406.883,1.062S294.238,732.975,293.665,732.975Z" transform="translate(-257.081 -661.881)" fill="url(#linear-gradient)"/>
    <path id="XMLID_110_" d="M337.278,732.709a.9.9,0,0,0,.787-.919c0-.584-.5-.978-1.3-.978l-1.753-.012L335,734.212h.847V732.8h.561l.847,1.408h.918Zm-.584-.513h-.823v-.775h.847c.274.012.477.155.477.382C337.183,732.052,336.992,732.208,336.694,732.2Z" transform="translate(-295.04 -662.497)" fill="url(#linear-gradient)"/>
    <path id="XMLID_109_" d="M372.1,731.6h1.252v2.72h.835l.012-2.708h1.264l.012-.7L372.1,730.9Z" transform="translate(-327.714 -662.586)" fill="url(#linear-gradient)"/>
    <path id="XMLID_108_" d="M414.547,730.9h-.835l-.012,3.423h.835Z" transform="translate(-364.352 -662.586)" fill="url(#linear-gradient)"/>
    <path id="XMLID_107_" d="M436.607,734.323l1.36-3.411h-.847l-.93,2.338-.93-2.35H434.4l1.372,3.423Z" transform="translate(-382.583 -662.586)" fill="url(#linear-gradient)"/>
    <path id="XMLID_103_" d="M476.276,730.1a1.808,1.808,0,1,0,1.765,1.813A1.69,1.69,0,0,0,476.276,730.1Zm-.012,2.887c-.561,0-.883-.417-.883-1.085s.334-1.062.895-1.062.895.406.883,1.062S476.825,732.987,476.264,732.987Z" transform="translate(-417.898 -661.881)" fill="url(#linear-gradient)"/>
    <path id="XMLID_102_" d="M232.453,774.087c-.561,0-.871-.394-.871-1.086s.31-1.109.835-1.1a.881.881,0,0,1,.823.632l.68-.394a1.488,1.488,0,0,0-1.563-.942,1.647,1.647,0,0,0-1.658,1.789,1.667,1.667,0,0,0,1.765,1.813,1.57,1.57,0,0,0,1.5-.835l-.668-.465A.983.983,0,0,1,232.453,774.087Z" transform="translate(-203.181 -698.078)" fill="url(#linear-gradient)"/>
    <path id="XMLID_101_" d="M273.386,773.723c0,.465-.215.68-.656.68-.418,0-.608-.215-.608-.668l.012-2.135H271.3v2.362c-.012.763.453,1.157,1.443,1.169s1.491-.382,1.491-1.157l.012-2.362H273.4Z" transform="translate(-238.936 -698.431)" fill="url(#linear-gradient)"/>
    <path id="XMLID_100_" d="M311.447,774.791v-.835l1.3.012v-.632h-1.3v-.716l1.419.012.131-.62L310.612,772l-.012,3.411,2.422.012-.131-.632Z" transform="translate(-273.55 -698.783)" fill="url(#linear-gradient)"/>
    <path id="XMLID_99_" d="M347.007,774.016,345.8,772h-.99l-.012,3.411.811.012v-2.135l1.276,2.135h.918l.012-3.411h-.811Z" transform="translate(-303.671 -698.783)" fill="url(#linear-gradient)"/>
    <path id="XMLID_98_" d="M384.8,773a1.673,1.673,0,0,0,1.765,1.813,1.57,1.57,0,0,0,1.5-.835l-.668-.465a.975.975,0,0,1-.847.573c-.561,0-.871-.394-.871-1.086s.322-1.1.835-1.1a.856.856,0,0,1,.811.632l.692-.394a1.5,1.5,0,0,0-1.563-.942A1.651,1.651,0,0,0,384.8,773Z" transform="translate(-338.899 -698.078)" fill="url(#linear-gradient)"/>
    <path id="XMLID_94_" d="M425.8,771.912l-1.074-.012-1.229,3.412h.835l.227-.656h1.408l.215.656h.835Zm-1.026,2.1.489-1.372.465,1.384Z" transform="translate(-372.983 -698.695)" fill="url(#linear-gradient)"/>
    <path id="XMLID_93_" d="M218.118,204.132a2.9,2.9,0,0,0,2.767-1.527l-1.229-.859a1.786,1.786,0,0,1-1.539,1.062c-1.026,0-1.61-.74-1.6-2s.573-2.016,1.527-2.016a1.608,1.608,0,0,1,1.5,1.169l1.264-.728a2.735,2.735,0,0,0-2.863-1.73,3.322,3.322,0,0,0,.167,6.632Z" transform="translate(-189.263 -192.812)" fill="url(#linear-gradient)"/>
    <path id="XMLID_92_" d="M293.625,204.034l-2.887-.012.012-5.022h-1.539l-.012,6.274,4.414.012Z" transform="translate(-254.703 -194.133)" fill="url(#linear-gradient)"/>
    <path id="XMLID_91_" d="M351.86,205.677c1.825.012,2.755-.7,2.755-2.123l.012-4.342h-1.551l-.012,3.9c0,.847-.394,1.253-1.2,1.241-.763,0-1.133-.417-1.121-1.229l.012-3.924h-1.539l-.012,4.342C349.2,204.95,350.035,205.653,351.86,205.677Z" transform="translate(-307.546 -194.309)" fill="url(#linear-gradient)"/>
    <path id="XMLID_86_" d="M426.619,202.592a2.768,2.768,0,0,0-.93-.322c.573-.167,1.5-.441,1.515-1.443a1.292,1.292,0,0,0-.429-.99,2.419,2.419,0,0,0-1.73-.525l-3.221-.012-.024,6.274,3.471.012c1.276,0,2.159-.68,2.159-1.682A1.5,1.5,0,0,0,426.619,202.592Zm-3.257-2.147h1.443c.6.012.942.239.942.632,0,.453-.334.68-.978.68h-1.408Zm1.551,4h-1.551V202.9h1.312c.763,0,1.145.262,1.145.811C425.808,204.191,425.486,204.453,424.913,204.441Z" transform="translate(-371.486 -194.397)" fill="url(#linear-gradient)"/>
    <path id="XMLID_85_" d="M603.233,280.293c.549.453,1.133.847,1.73,1.253a.372.372,0,0,0,.37-.012,23.616,23.616,0,0,0,1.944-1.515,2.565,2.565,0,0,0,.871-2.207,1.582,1.582,0,0,0-1.1-1.443,1.62,1.62,0,0,0-1.825.573c-.024.036-.06.048-.1.1a1.7,1.7,0,0,0-2.243-.537,1.693,1.693,0,0,0-.668.835c-.036.1-.084.191-.119.286v.847A3.5,3.5,0,0,0,603.233,280.293Z" transform="translate(-530.279 -262.198)" fill="url(#linear-gradient)"/>
    <path id="XMLID_84_" d="M603.233,428.893c.549.453,1.133.847,1.73,1.253a.372.372,0,0,0,.37-.012,23.629,23.629,0,0,0,1.944-1.515,2.565,2.565,0,0,0,.871-2.207,1.582,1.582,0,0,0-1.1-1.443,1.62,1.62,0,0,0-1.825.573c-.024.036-.06.048-.1.1a1.7,1.7,0,0,0-2.243-.537,1.693,1.693,0,0,0-.668.835c-.036.1-.084.191-.119.286v.847A3.411,3.411,0,0,0,603.233,428.893Z" transform="translate(-530.279 -393.072)" fill="url(#linear-gradient)"/>
    <path id="XMLID_83_" d="M603.233,577.594c.549.453,1.133.847,1.73,1.252a.372.372,0,0,0,.37-.012c.656-.489,1.336-.966,1.944-1.515a2.565,2.565,0,0,0,.871-2.207,1.582,1.582,0,0,0-1.1-1.443,1.62,1.62,0,0,0-1.825.573.721.721,0,0,1-.1.1,1.7,1.7,0,0,0-2.243-.537,1.693,1.693,0,0,0-.668.835c-.036.1-.084.191-.119.286v.847A3.411,3.411,0,0,0,603.233,577.594Z" transform="translate(-530.279 -524.034)" fill="url(#linear-gradient)"/>
    <path id="XMLID_82_" d="M603.233,726.294c.549.453,1.133.847,1.73,1.253a.373.373,0,0,0,.37-.012c.656-.489,1.336-.966,1.944-1.515a2.578,2.578,0,0,0,.871-2.207,1.582,1.582,0,0,0-1.1-1.443,1.62,1.62,0,0,0-1.825.573c-.024.036-.06.048-.1.1a1.7,1.7,0,0,0-2.243-.537,1.693,1.693,0,0,0-.668.835c-.036.1-.084.191-.119.286v.847A3.456,3.456,0,0,0,603.233,726.294Z" transform="translate(-530.279 -654.997)" fill="url(#linear-gradient)"/>
    <path id="XMLID_81_" d="M519.738,826.869a1.62,1.62,0,0,0-1.825.573.718.718,0,0,1-.1.1,1.639,1.639,0,0,0-1.109-.728,1.611,1.611,0,0,0-1.121.191,1.693,1.693,0,0,0-.668.835c-.036.1-.084.191-.119.286v.847a3.518,3.518,0,0,0,1.145,1.813c.549.453,1.133.847,1.73,1.253a.373.373,0,0,0,.37-.012,23.627,23.627,0,0,0,1.944-1.515,2.533,2.533,0,0,0,.871-2.207A1.636,1.636,0,0,0,519.738,826.869Z" transform="translate(-453.392 -747.031)" fill="url(#linear-gradient)"/>
    <path id="XMLID_80_" d="M321.45,908.469a1.62,1.62,0,0,0-1.825.573c-.024.036-.06.048-.1.1a1.7,1.7,0,0,0-2.243-.537,1.693,1.693,0,0,0-.668.835c-.036.1-.083.191-.119.286v.847a3.517,3.517,0,0,0,1.145,1.813c.549.453,1.133.847,1.718,1.253a.372.372,0,0,0,.37-.012,23.617,23.617,0,0,0,1.944-1.515,2.533,2.533,0,0,0,.871-2.207A1.536,1.536,0,0,0,321.45,908.469Z" transform="translate(-278.746 -818.898)" fill="url(#linear-gradient)"/>
    <path id="XMLID_79_" d="M123.567,827a1.7,1.7,0,0,0-2.243.537.359.359,0,0,1-.1-.1,1.621,1.621,0,0,0-2.922.871,2.6,2.6,0,0,0,.871,2.207,22.266,22.266,0,0,0,1.944,1.515.405.405,0,0,0,.37.012c.584-.406,1.181-.8,1.73-1.253a3.566,3.566,0,0,0,1.145-1.813v-.847c-.036-.1-.083-.191-.119-.286A1.759,1.759,0,0,0,123.567,827Z" transform="translate(-104.183 -747.031)" fill="url(#linear-gradient)"/>
    <path id="XMLID_78_" d="M32.121,280.293c.549.453,1.133.847,1.73,1.253a.372.372,0,0,0,.37-.012,23.618,23.618,0,0,0,1.944-1.515,2.533,2.533,0,0,0,.871-2.207,1.582,1.582,0,0,0-1.1-1.443,1.62,1.62,0,0,0-1.825.573c-.024.036-.06.048-.1.1a1.639,1.639,0,0,0-1.109-.728,1.612,1.612,0,0,0-1.121.191,1.693,1.693,0,0,0-.668.835c-.036.1-.083.191-.119.286v.847A3.409,3.409,0,0,0,32.121,280.293Z" transform="translate(-27.302 -262.198)" fill="url(#linear-gradient)"/>
    <path id="XMLID_77_" d="M32.121,428.893c.549.453,1.133.847,1.73,1.253a.372.372,0,0,0,.37-.012,23.632,23.632,0,0,0,1.944-1.515,2.533,2.533,0,0,0,.871-2.207,1.582,1.582,0,0,0-1.1-1.443,1.62,1.62,0,0,0-1.825.573c-.024.036-.06.048-.1.1a1.639,1.639,0,0,0-1.109-.728,1.612,1.612,0,0,0-1.121.191,1.693,1.693,0,0,0-.668.835c-.036.1-.083.191-.119.286v.847A3.323,3.323,0,0,0,32.121,428.893Z" transform="translate(-27.302 -393.072)" fill="url(#linear-gradient)"/>
    <path id="XMLID_76_" d="M32.121,577.594c.549.453,1.133.847,1.73,1.252a.372.372,0,0,0,.37-.012c.656-.489,1.336-.966,1.944-1.515a2.533,2.533,0,0,0,.871-2.207,1.582,1.582,0,0,0-1.1-1.443,1.62,1.62,0,0,0-1.825.573.72.72,0,0,1-.1.1,1.639,1.639,0,0,0-1.109-.728,1.612,1.612,0,0,0-1.121.191,1.693,1.693,0,0,0-.668.835c-.036.1-.083.191-.119.286v.847A3.323,3.323,0,0,0,32.121,577.594Z" transform="translate(-27.302 -524.034)" fill="url(#linear-gradient)"/>
    <path id="XMLID_75_" d="M32.121,726.294c.549.453,1.133.847,1.73,1.253a.373.373,0,0,0,.37-.012c.656-.489,1.336-.966,1.944-1.515a2.546,2.546,0,0,0,.871-2.207,1.582,1.582,0,0,0-1.1-1.443,1.62,1.62,0,0,0-1.825.573c-.024.036-.06.048-.1.1a1.639,1.639,0,0,0-1.109-.728,1.612,1.612,0,0,0-1.121.191,1.693,1.693,0,0,0-.668.835c-.036.1-.083.191-.119.286v.847A3.366,3.366,0,0,0,32.121,726.294Z" transform="translate(-27.302 -654.997)" fill="url(#linear-gradient)"/>
    <path id="XMLID_74_" d="M119.9,700.412v0Z" transform="translate(-105.598 -635.724)" fill="url(#linear-gradient)"/>
    <path id="XMLID_73_" d="M168.247,377.511c-.74-.525-.179-1.575-.239-2.111C168.51,375.507,167.7,376.8,168.247,377.511Z" transform="translate(-147.838 -349.491)" fill="url(#linear-gradient)"/>
    <path id="XMLID_72_" d="M176.449,401.189c-.286-.525-.763-2.195.131-2.111C175.936,399.555,176.4,400.366,176.449,401.189Z" transform="translate(-155.061 -370.342)" fill="url(#linear-gradient)"/>
    <path id="XMLID_71_" d="M174.186,363.7c.453.751-.37,2.338.608,2.815.322-.513.012-.954.382-1.264.167.835-.382,1.551.239,2.243C174.567,367.35,173.637,364.762,174.186,363.7Z" transform="translate(-153.263 -339.187)" fill="url(#linear-gradient)"/>
    <path id="XMLID_70_" d="M178.4,549.426a3.175,3.175,0,0,1-.99,3.4l-.107-.143a3,3,0,0,0,.942-3.209,4.528,4.528,0,0,0-.155-.584,3.075,3.075,0,0,1,.036-2.159,3.479,3.479,0,0,0,.083-2.147l.155-.083a3.63,3.63,0,0,1-.083,2.29,2.918,2.918,0,0,0-.036,2.028C178.29,549.009,178.35,549.2,178.4,549.426Z" transform="translate(-156.151 -498.42)" fill="url(#linear-gradient)"/>
    <path id="XMLID_69_" d="M186.688,400.987c.2.322-1.014.107-.99-.286C186.008,400.259,186.043,401.333,186.688,400.987Z" transform="translate(-163.546 -371.679)" fill="url(#linear-gradient)"/>
    <path id="XMLID_68_" d="M187.371,352.228a.509.509,0,0,0,.1-.251.657.657,0,0,0-.239-.322l.1-.155a.732.732,0,0,1,.31.453.526.526,0,0,1-.131.394.307.307,0,0,1-.227.119h-.024c-.322,0-.7-.406-.751-.441l.107-.143c.107.119.429.418.644.394C187.311,352.287,187.335,352.263,187.371,352.228Z" transform="translate(-164.253 -328.442)" fill="url(#linear-gradient)"/>
    <path id="XMLID_67_" d="M184.5,359.2l.155-.1a1.567,1.567,0,0,0,1.372,1.014l.012.191h-.1A1.813,1.813,0,0,1,184.5,359.2Z" transform="translate(-162.492 -335.136)" fill="url(#linear-gradient)"/>
    <path id="XMLID_66_" d="M193.681,381.421c-.107.143-.441-.048-.62.286-.036.549.048.978.37,1.121-1.253-.179.2-2.111.131-2.529C193.92,380.694,193.383,381.326,193.681,381.421Z" transform="translate(-169.908 -353.807)" fill="url(#linear-gradient)"/>
    <path id="XMLID_65_" d="M200.038,353.013a.8.8,0,0,0,.907-.322l.119-.191.131.119-.119.179a.952.952,0,0,1-1.074.394,1.084,1.084,0,0,0-.907.155l-.1-.155A1.287,1.287,0,0,1,200.038,353.013Z" transform="translate(-175.262 -329.323)" fill="url(#linear-gradient)"/>
    <path id="XMLID_64_" d="M212.177,419.791a3.487,3.487,0,0,1-1.61-1.133C210.376,418.276,211.747,419.493,212.177,419.791Z" transform="translate(-185.433 -387.525)" fill="url(#linear-gradient)"/>
    <path id="XMLID_63_" d="M200.733,370.923a2.639,2.639,0,0,1,1.133-.1l-.048.191a2.092,2.092,0,0,0-.835.048,2.785,2.785,0,0,0,.871.334l-.036.191a2.619,2.619,0,0,1-1.074-.477,5.333,5.333,0,0,1-.871.131.377.377,0,0,1-.346-.179,1.543,1.543,0,0,1-.012-.966l.155.06a1.264,1.264,0,0,0-.012.787.233.233,0,0,0,.215.1A3.438,3.438,0,0,0,200.733,370.923Z" transform="translate(-175.648 -344.823)" fill="url(#linear-gradient)"/>
    <path id="XMLID_62_" d="M229.2,455.547c.131-.346.048-.3.131-.847C229.749,454.748,229.916,455.714,229.2,455.547Z" transform="translate(-201.86 -419.332)" fill="url(#linear-gradient)"/>
    <path id="XMLID_61_" d="M216.694,406.286c-1.1-.68-1.92.895-2.994-.155.167-.6.5.155.751.286C214.952,406.381,216.157,405.129,216.694,406.286Z" transform="translate(-188.209 -376.262)" fill="url(#linear-gradient)"/>
    <path id="XMLID_60_" d="M228.049,439c.179-.453,0,.632.489.274-.441.907-.966-.227-1.372-.561-.072-.346.728.525.871.847C228.407,439.474,227.918,439.259,228.049,439Z" transform="translate(-200.065 -405.18)" fill="url(#linear-gradient)"/>
    <path id="XMLID_59_" d="M196.611,498.012l.167-.012c.048.728-1.014,1.408-2.362,2.278-.406.262-.811.525-1.229.811a4.139,4.139,0,0,0-1.92,2.577l-.167-.024a4.349,4.349,0,0,1,2-2.72c.418-.286.823-.561,1.229-.823C195.573,499.312,196.659,498.62,196.611,498.012Z" transform="translate(-168.305 -457.467)" fill="url(#linear-gradient)"/>
    <path id="XMLID_58_" d="M254.822,479.6c-.525.847-.525,1.431-1.622,1.539.012-.358.489-.191.5-.561.179.06-.012.119,0,.286C254.345,480.542,254.321,479.8,254.822,479.6Z" transform="translate(-222.997 -441.262)" fill="url(#linear-gradient)"/>
    <path id="XMLID_57_" d="M253.712,470.55a4.621,4.621,0,0,0-2.612-.012A2.239,2.239,0,0,1,253.712,470.55Z" transform="translate(-221.148 -432.916)" fill="url(#linear-gradient)"/>
    <path id="XMLID_56_" d="M270.266,456.346c-.2-.072-.453-.06-.334.358-.286-.036-.072-.62,0-.7A.93.93,0,0,0,270.266,456.346Z" transform="translate(-237.606 -420.477)" fill="url(#linear-gradient)"/>
    <path id="XMLID_55_" d="M269.9,446.477c.334-.131-.155-1.217.382-1.121C269.948,445.5,270.449,446.573,269.9,446.477Z" transform="translate(-237.705 -411.098)" fill="url(#linear-gradient)"/>
    <path id="XMLID_54_" d="M273.8,458.9a.7.7,0,0,1,.167.072A1.164,1.164,0,0,1,273.8,458.9Z" transform="translate(-241.14 -423.031)" fill="url(#linear-gradient)"/>
    <path id="XMLID_53_" d="M277.431,460.776c-.3-.74-1.276-.632-2.231-1.276h0C275.951,459.834,277.192,459.619,277.431,460.776Z" transform="translate(-242.373 -423.559)" fill="url(#linear-gradient)"/>
    <path id="XMLID_52_" d="M290.936,424.512c-.012,0-.024-.012-.036-.012h.024l.024.024C290.96,424.512,290.948,424.512,290.936,424.512Z" transform="translate(-256.2 -392.734)" fill="url(#linear-gradient)"/>
    <path id="XMLID_51_" d="M294.036,424.6h0Z" transform="translate(-258.93 -392.822)" fill="url(#linear-gradient)"/>
    <path id="XMLID_50_" d="M153.334,707.11h.632a1.315,1.315,0,0,0-.632-.31A1.347,1.347,0,0,0,153.334,707.11Z" transform="translate(-135.036 -641.36)" fill="url(#linear-gradient)"/>
    <g id="XMLID_5_" transform="translate(12.251 15.352)">
      <g id="XMLID_6_">
        <path id="XMLID_47_" d="M183.27,510.028c0-.083-.107-.167-.131,0l-.239-.036c.191-1.336,1.491-2.648,1.873-3.9-.1-.036-.25,0-.25-.143.549-.1.286-1.276.25-1.121-.274.2.155.346-.131.418.072-.334-.072-.441-.286-.477v-.083c.274.012.513,0,.537-.286-.465-.107-.012-.489-.251-.7h-.251a.292.292,0,0,1-.048.143.9.9,0,0,0,.012-.179c.012-.036.036-.06.048-.1h-.048v-.239c.012-.012.036-.024.036-.036s-.012-.131-.024-.262a6.726,6.726,0,0,1,.835-2.7c.06,0,.775-1.157.895-1.288.06-.036,1.014-.942,1.014-.954s.358-.394.537-.6a11.7,11.7,0,0,1,1.229-.942c-.2.083.453-.346.441-.406a8.21,8.21,0,0,1,3.423-1.276c.024-.06.06-.119.084-.167l.417.036c-.2,1.288-1.765.716-2.732,1.252s-2.541,2.493-3.5,3.364c-.262.227-.751.346-.871.561a2.139,2.139,0,0,0-.251,1.121c2.243,0,4.748-.286,5.475,1.431,1.193-.286,1.443,1.145,2.111.99.036-.239-.346-.7.012-.847.775.406.322,1.789.978,2.541-.465-.107-.6.167-.99.131.262.787.966,1.074,1.109,1.98-.3.6-.489,1.217,0,1.694-1.05.99-1.408-.489-1.61-1.264-.692.322-.477,1.109-.883,1.682a2.483,2.483,0,0,1-.716.6l-.274-.322v-.083a1.756,1.756,0,0,0,.573-.608,6.948,6.948,0,0,0,.716-2.29h0c.119-.227.239-.477.346-.74.167.06.274.107.107-.072a.18.18,0,0,1-.048-.1,3.55,3.55,0,0,0,.239-1.2l.072-.107c.107.286.632.036.251-.143-.024.3-.143-.012-.334-.036v-.06a.9.9,0,0,0-.525-.68c-.262-.107-.513-.191-.763-.286a.169.169,0,0,0,.024-.072c-.107-.048-.167-.036-.2-.012a2.141,2.141,0,0,1-.382-.227c-.191-.155-.358-.322-.537-.477a.326.326,0,0,0-.25-.191c-.083-.048-.167-.107-.239-.143-.012-.012-.036-.012-.06-.024,0-.024-.024-.06-.084-.072,0,.012-.012.012-.024.024a3.308,3.308,0,0,0-1.324-.191c-.883,0-1.753-.036-2.624-.048-.239-.012-.7.239-.31.5.2.143.394.274.573.418a.87.87,0,0,0,.286.274,2.161,2.161,0,0,1,.215.25.509.509,0,0,0,.2.31c.262.394.525.811.787,1.2.107.155.2.3.31.453a.8.8,0,0,0-.227.167.5.5,0,0,1,.37.143c0-.024.024-.036.024-.06.048.084.107.155.155.239a.484.484,0,0,1-.06.107.581.581,0,0,0,.143.012c.048.083.107.167.155.25a3.068,3.068,0,0,1,.143,1.992.535.535,0,0,0-.012.131.9.9,0,0,1-.179,0c-.274.191.155.346-.131.418-.06-.107-.549-.215-.251.143a1.012,1.012,0,0,0-.871.286c.155.024.083.155,0,.274.322.012.489.2.5.561-.131.31-.68-.31-.871.131.859.394,1.4-.537,1.742-.966a1.652,1.652,0,0,0,.036.358c-.286.668-1.789,1.3-1.909,2.159.322.239.883.358.668.895l-.322-.048c.012-.036.024-.083.036-.131-1.038-.131-.883-.954-.489-1.694-.334-.262-1.145-.143-.74-.847-.584-.119-.131-.179-.62-.286.155-.036.083-.155,0-.274a2.848,2.848,0,0,1,1.372-.274c-.072-.871.227-1.336.751-1.539-.525-.155-.68.119-1-.143.8-.155.68-.537.751-1.408-.525-.537-1.121-1.718-1.861-1.551C185.763,506.843,184.081,508.322,183.27,510.028Zm2.386-6.883c-.024-.286.262.179.322.262-.012-.024-.036-.06-.072-.131.024-.107,0-.274.119-.274,0,.083.107.167.119,0-.394-.179-.871-.334-.99-.143C185.453,503.05,185.441,502.788,185.655,503.145Z" transform="translate(-173.333 -469.913)" fill="url(#linear-gradient)"/>
        <path id="XMLID_46_" d="M123.843,627.7c-.763.859.8,1.992,1.479,2.123l-.036.25a7.128,7.128,0,0,1-1-.215c-.012,0-.99-.775-1.05-1.181a1.605,1.605,0,0,1,.179-1.026c.179-.418.549-.5.835-.656a1.11,1.11,0,0,0,.394-.31c.024.012.048.012.072.024a.506.506,0,0,0-.024-.131,1.4,1.4,0,0,0-.107-.907v-.012c1.515-.274,3.149-.417,3.734-1.742-.107-.1-.382-.656-.119-.7a8.686,8.686,0,0,1,.99,2.541c.489.072.644-.3.871.143-.215.286-.382.119-.5.274.62.477,1.217-.787,1.742-.418,0-.429.262-.549.382-.847-.262-.239-.37-.31-.751-.143a2.155,2.155,0,0,1-.608-1.861l.239.036c.322.429.227,1.336.99,1.264.024-.537.024-.883.131-.99.31.31.74.477.859.99-.31.823.215,1.408.358,2.386-.227.573-1.085,1.157-1.61.561-.119-.7.895-.119.871-.7-1.264-1.026-3.662,2.493-4.485-.143.465-.1.787.358,1.121,0-.06-.537-.382-.775-.37-1.408-.954.561-1.634,1.431-3.233,1.253.06,1.157-.131,2.016-.751,2.386C124.165,628.363,124.344,627.648,123.843,627.7Z" transform="translate(-120.766 -582.82)" fill="url(#linear-gradient)"/>
        <path id="XMLID_7_" d="M102.7,286.9l.012.048v48.43c0,7.837,6.477,12.728,15.817,15.424,8.684,2.505,11.392,5.559,12.668,7.372l.024.06a.012.012,0,0,1,.012-.012.012.012,0,0,0,.012.012l.024-.06c1.276-1.813,3.984-4.867,12.668-7.372,9.328-2.7,15.805-7.587,15.805-15.435V286.9Zm46.819,1.026h2.66V298.22a7.616,7.616,0,0,0-1.4-1.849.316.316,0,0,1-.06-.072c-.155-.167-.334-.31-.5-.465a6,6,0,0,0-.7-.525Zm3.256,13.932-.072-.119-1.014-3.221.036-.394c.131.227.25.465.37.7A7.475,7.475,0,0,1,152.776,301.858Zm-1.491-3.03.895,2.851-1.527,1.944-2.374-.907-.811-2.922,1.67-2Zm-3.412,9.924,2.887-1.932.37-.107a7.9,7.9,0,0,1-3.59,2.529Zm-2.481-1.276.2-2.577,2.612-1.694,2.278.871-.155,2.445-2.744,1.837Zm4.127,1.169a8.176,8.176,0,0,0,2.66-2.9V337.3h-2.66Zm-2.457-9.125-3.018-.143-1.515-2.195,1.539-2.111,3.4.239,1.264,2.207Zm-4.867,9.161.334.537c-.06-.024-.131-.036-.191-.06a7.711,7.711,0,0,1-3.65-2.875l.561.143Zm-2.374-2.421.239-2.589,2.565-.668,2.457,1.956-.191,2.433-2.517.811Zm2.672,3.316a8.079,8.079,0,0,0,2.565.418h.083v27.3h-2.66V309.576Zm5.105-14.744-3.757-.262-.239-.119a7.582,7.582,0,0,1,1.479-.143,7.783,7.783,0,0,1,2.72.489Zm-5.105-6.907h2.66v6.036h-.072a7.742,7.742,0,0,0-1.968.25l-.024-.012h-.024c-.083.024-.155.06-.227.084-.119.036-.239.072-.346.107Zm-.406,9.507,1.467,2.135-1.121,2.946-2.493.668-1.563-2.028,1.3-3.245Zm-2.887.429-1.276,3.173-.549.584a7.388,7.388,0,0,1,.489-2.362,7.311,7.311,0,0,1,1.324-2.219Zm-3.734-9.936h2.66v10a8.36,8.36,0,0,0-.6,1.229,7.9,7.9,0,0,0,.191,6.119c.119.262.262.525.406.775V337.31h-2.66Zm-4.366,0v12.895a1.618,1.618,0,0,0-.346.072l-2.04-3.865a2.246,2.246,0,0,0,.692-.835,2.859,2.859,0,0,0-.251-2.8l-2.3-3.423a2.8,2.8,0,0,0-1.6-1.157,2.056,2.056,0,0,0-.525-.072l-1.491-.1-.418-.716Zm-7.921,49.122,1.491-.1a1.988,1.988,0,0,0,.525-.072,2.8,2.8,0,0,0,1.6-1.157l2.3-3.412a2.8,2.8,0,0,0,.251-2.8,2.406,2.406,0,0,0-.692-.847l2.04-3.853a2.456,2.456,0,0,0,.406.083V337.31h-8.076Zm-.668-2.875a.952.952,0,0,1-.155-.155l-.167-.358a1.411,1.411,0,0,1,.012-.668,1.706,1.706,0,0,1,.2-.453l.561-.835.262-.394.549-.8.382-.573.382-.573.179-.262a1.406,1.406,0,0,1,.775-.573.852.852,0,0,1,.728.119l1.622,1.169a1.1,1.1,0,0,1,.262.31,1.324,1.324,0,0,1-.155,1.312l-2.314,3.447a1.352,1.352,0,0,1-.775.573.852.852,0,0,1-.728-.119Zm8.565-10.771-1.885-.585a.676.676,0,0,1-.334-.215,1.329,1.329,0,0,1-.251-1.3l1.157-4a1.37,1.37,0,0,1,.561-.8.857.857,0,0,1,.728-.119l.048.012v7.014C131.09,323.4,131.09,323.4,131.078,323.4Zm-1.026-8.386a2.546,2.546,0,0,0-.477.239,2.873,2.873,0,0,0-1.169,1.622l-1.157,4a2.815,2.815,0,0,0,.608,2.744,2.106,2.106,0,0,0,.93.573l.107.036-1.753,3.316-.119-.083a2.21,2.21,0,0,0-1.873-.346,2.8,2.8,0,0,0-1.6,1.157l-.573.847c-1.36.322-2.732.382-3.137-1.109a1.682,1.682,0,0,1,.895-1.085l-.274-.322c-.012-.012-.024-.036-.048-.06a1.237,1.237,0,0,1-.119.048,2.01,2.01,0,0,0-1,1.646.042.042,0,0,1-.012.024,2.725,2.725,0,0,0,1.408,1.706,7,7,0,0,0,1.515.274l-.6.883c-.334-.656-.632-1.36-1.527-.895.823.131,1.288.429,1.312,1.217l-.143.215a2.672,2.672,0,0,0-.262.477c-.143.036-.251.191-.417.346-.322-.107-.429-.453-.37-.99.382-.012.823-.072.74.417.453-.668-.871-.907-.978-.227.06-.811-.644-2.231-1.622-1.324-.382-.167.131-.477,0-.835-.537.453-.895.37-1.491-.012a.582.582,0,0,1,.036-.083l-.322-.048c-.107.286-.417.334-.6.561-.036.549.907.453.5.99.3-.119.716-.119.74-.561.25.262.525.99.37,1.264.429-.131.5-.656.99-.7.167.608-.3.513-.382.847.429-.072.656-.382.99-.561.155,1,.907,1.324,1.109,2.254a.9.9,0,0,0,.429-.358,2.665,2.665,0,0,0,.251,1.36c.048.1.1.179.143.262l.608,1.276-.811,1.252H109.762a4.492,4.492,0,0,0,.06-1.014c.513.048.489-.179.871,0-.907-.871-.847-2.469-2.111-2.684-.37-.06-.883.37-1.372.274l-.036.251a2.574,2.574,0,0,0,.417.036,4.06,4.06,0,0,1,1.193.167c.429.143.859.93.477,1.3a1.562,1.562,0,0,0-.072-.322,1.84,1.84,0,0,0-.966-.847l-.048.179a1.732,1.732,0,0,1,.871.751.941.941,0,0,1,.06.358c-.179.119-.322.215-.477.31a.92.92,0,0,0-.1-.441,1.356,1.356,0,0,0-.918-.608l.012.251a1.151,1.151,0,0,1,.8.513.839.839,0,0,1,.06.465c-.119.083-.239.167-.382.286s-.382.322-.62.477h0v.012c-.083.06-.179.119-.274.179h0a1.029,1.029,0,0,0,.358-.871c-.1-.6-.942-.847-.966-.859l-.048.179s.775.239.847.716c.048.274-.155.6-.573.954l.012.012h-.072a1.878,1.878,0,0,1-1.145-.441,4.139,4.139,0,0,1-.239-1.253l-.62.632-.024-.024a4.586,4.586,0,0,1-.1-.871l-.525.573c-.024-.024-.06-.036-.083-.06-.489-.477-.262-1.324-.215-2a.421.421,0,0,0,.167.036c.31,0,.549-.358.549-.811a.872.872,0,0,0-.322-.74,3.185,3.185,0,0,1,.942-1.587c.31-.334.417-.632.346-.859a.7.7,0,0,0-.608-.394c0-.024.012-.036.012-.06a.227.227,0,0,1-.119-.06c-.048-1.145.322-2.791,2.111-2.1.167-.048.107-.346.131-.561-.37-.465-1.765-.406-1.241-1.419,1.026,1.443,1.73.477,2.481.155-.382-.358-1.5.1-1.491-.7,1.193.584,1.622-.752,2.123-1.408-.37.155-.31-1.014.131-1.121,0-.286-.334-.179-.25-.561-.382.215-1.038.131-1.241.561-.083-.441.048-.191-.5-.274-1.873-.334-2.934-2.851-1.742-5.034.024-.048.048-.083.072-.131a.114.114,0,0,1,.024-.083c.155-.143.179-.5.227-.7a2.583,2.583,0,0,1,.227-.525,3.714,3.714,0,0,0,.31-.716.684.684,0,0,1,.048-.167,7.822,7.822,0,0,0,.2-1,2.041,2.041,0,0,1,.155-.525c-.083-.215.048-.239.262-.215a1.179,1.179,0,0,1,.179-.036c.155-.06.489-.2.668-.083a.151.151,0,0,0,.012-.072c.024.048.036.1.06.143a2.608,2.608,0,0,1,.1,1.217,5.573,5.573,0,0,1-.2,1.408,1.612,1.612,0,0,1-.31.561c-.012.012-.012.036-.024.048v-.012l-.131.155h.024c-.06.191-.155.215-.25.2l-.036.036c-.406.3-.883.274-1.312.5a.3.3,0,0,1-.048.083,4.37,4.37,0,0,0,.394,3.805,2.516,2.516,0,0,1,2.111.429c.751-.549,1.67-.919,1.992-1.968h.131c.036-.06.072-.131.107-.2a.159.159,0,0,1,.036-.06c.1-.179.2-.346.31-.513a1.387,1.387,0,0,1,.048-.215c.036-.012.072-.012.1-.024.1-.155.191-.31.274-.465a.151.151,0,0,1,.012-.072h.036a10.682,10.682,0,0,0,.489-.978h-.024a.184.184,0,0,1,.1-.179,14.574,14.574,0,0,1,.751-2.445.066.066,0,0,1,.06-.036c.167-.358.286-.74.417-1.109-.024,0-.036-.012-.06-.012.036-.072.072-.119.119-.131a5.174,5.174,0,0,1,.358-.835.93.93,0,0,1,.262-.418,4.529,4.529,0,0,0,.6-1.085.249.249,0,0,1,.119-.31,3.645,3.645,0,0,0,.155-.382c-.131-.3-.131-.728-.239-1.062-.251,0-.167.394-.5.286-.036-.382.179-.465.5-.429-.262-.346-.728-.489-.99-.847.262-.37.322-.3.382-.7.5.048.5-.465.871-.561-.537-.573-.942.978-1.372.978-.656.012-.513-1.038-1.241-1.276.334-.668.322-1.133.751-1.121-.1-.322-.692-.06-.99-.143.31-.25.131-.191.131-.7-.406-.083-.585.1-.871.131a1.827,1.827,0,0,1,.5-1.264c-.036-.286-.549-.036-.489-.418-.394.024-.167.763-.632.7.06-.561-.107-1.348.131-1.682-.382-.286-.549.883-1.121.835-.453-.966.465-1.276.751-1.825-.5-.286.31-.656.131-1.408-.179.6-.417,1.73-1.241,1.121a2.329,2.329,0,0,0,.513-2.946,5.718,5.718,0,0,1,1.121-1.264c-.024-.119-.131-.143-.131-.286-.477.811-1.419,1.121-1.5,2.386-1.491-1.658,1.253-2.421,1.253-3.936-.394-.06-.346.358-.5.573-.191-.012.06-.668.131-.847-.429.286.012-.06-.239-.143.048-.024.107-.06.155-.083.1-.2.2-.417.322-.62h-.107a.571.571,0,0,0,.179-.131,9.135,9.135,0,0,1,.644-.93.661.661,0,0,1,.167-.155c0-.024,0-.036.012-.048a.13.13,0,0,1,.06-.012,1.784,1.784,0,0,1,1.121-.107.748.748,0,0,1,.179.382c0,.024-.012.06-.072.083l-.036.024c-.322.179-.632.334-.477.966a2.263,2.263,0,0,0,.155.441c.083.191.1.227-.048.37l-.286.286.107.143.286-.286c.227-.215.179-.358.083-.573a1.731,1.731,0,0,1-.131-.417c-.119-.477.06-.573.382-.752l.036-.012a.314.314,0,0,0,.167-.227.612.612,0,0,0-.119-.394,2.4,2.4,0,0,0,.286-.012c.012-.012.024-.012.048-.036a.044.044,0,0,1-.012.036c.895-.036,2.076-.25,2.72.441.012.012.024.024.024.036a3.564,3.564,0,0,1,.477.62.535.535,0,0,0,.143.012.408.408,0,0,1-.024.179,1.6,1.6,0,0,0,.441.489c.179.131.37.239.549.37l.024.024a.637.637,0,0,1,.429.537.331.331,0,0,0,.012.107.13.13,0,0,0,.06-.012c-.012.024-.036.06-.048.084a1.357,1.357,0,0,1-.024.584.224.224,0,0,1-.072.274c0,.036-.012.072-.012.107a1.131,1.131,0,0,1-.823.131c-.8-.107-1.539-.334-1.765-.143s-.167.585-.179.763.787.62,1.539.441c.656-.155.919-.215,1.062-.048a.044.044,0,0,1-.012.036c-.036.215-.06.441-.083.668.048.083-.048.322-.048.322v.06a.533.533,0,0,1-.143.322c-.31.334-1.121.155-1.479.119-.286-.024-.573-.012-.859-.036-.895,1.861,1.229,2.589,2.791,1.789-.155.31,1.67.179,2.243.143a.523.523,0,0,1-.5.274c.036.37.728.3.37.7.5-.155.632.25,1.491.143-.227.6-.919.215-1.241.418l-.036.6c.1.31.441.358.62.573-.871.358-1.718-.7-2.982-.429.286.608,1.765-.131,1.98.847-.871.179-.966.429-1.992.274,1.419.847,2.7-1.085,4.235.012a2.883,2.883,0,0,1,.429-.5c-.012.012.024.036.024.036a2.225,2.225,0,0,0,1.217,0c.525-.2.763-.489,1.121-.465a1.041,1.041,0,0,1,.191.024,5.744,5.744,0,0,0,.847.167c.215,0,.131-.119,0-.191s-.406-.394-.74-.334a6.305,6.305,0,0,0-.871.346,3.971,3.971,0,0,1-1.038.322,2.645,2.645,0,0,1-.561-.024,2.285,2.285,0,0,1,.215-.262c.143-.131.3-.251.441-.358.394-.286.752-.62,1.145-.895l.107-.072a.26.26,0,0,1-.036-.06,1.4,1.4,0,0,1,1.026-.465.552.552,0,0,1,.083-.083,4.148,4.148,0,0,0,.692-1.038,3.784,3.784,0,0,0,.179-.656c-.107-.036-.048-.131.024-.131.024-.119-.06-.131-.131-.143,0-.024.1-.048.191-.083a1.444,1.444,0,0,1,.06-.167c-.036-.012-.072-.024-.119-.036V298.6a1.987,1.987,0,0,0,.632-.167c.024.024.036.06.06.083a1.339,1.339,0,0,1,.382.394c-.012,0-.25.143-.179.358a.464.464,0,0,0,.441.346c.036,0,.06.012.1.012.024.048.036.1.06.143.06.012.084.048.06.179a2.589,2.589,0,0,1,.084.286c-.012.024-.036.048-.048.072-.131.31-.227.227-.441.274s-.716-.06-1,0-.3.322,0,.334a6.692,6.692,0,0,1,.978-.072c.561.048.549.8.525.918a1.405,1.405,0,0,1-.227.465,2.12,2.12,0,0,1-.382.418,7.643,7.643,0,0,0-1.551-.859,3.067,3.067,0,0,1,.585,1.6c-.06.06-.1.107-.1.131-.262.06-.322-.1-.489-.143.012-.036-.119-.036-.131,0a.43.43,0,0,1-.179-.1h-.036c-.012,0-.024-.012-.036-.012a1.672,1.672,0,0,1-.406-.215,1.761,1.761,0,0,0-.251-.131c-.072-.012-.036.072.036.274a5.069,5.069,0,0,1-.012,1.312c-1.241-.608-1.9.644-3.113,1.121-.1-1.264-2.338-.489-3.352-1.276-.1.417.3.286.262.644.191-.62,2.648.227,2.97.632.084.382-.25.286-.262.561,1.2-.37,1.861-2.04,3.364-1.4a9.146,9.146,0,0,0-.382,2.111c1.324-.429,3.018.489,3.674-.835l.441,1.527a4.419,4.419,0,0,0-1.372-.406c.382.692,1.658.382,1.36,1.837-.262.131-.37.429-.751.417-.513-.072-.573-.668-.99-.847-.274.417-.358,1.4-.99.99-.262-.406-.155-1.229-.99-.99,0,.37.048.8-.131.978-.513-.024-.68-.453-1.121-.561.2.465.883.406.74,1.264a2.382,2.382,0,0,0-1.658,1.36l.417.036a4.743,4.743,0,0,0,1.742,0c0,.012-.012.012-.012.036a3.7,3.7,0,0,0,.6-.346c.048-.417.1-.823.167-1.229.429.131.835.286.99.7.31-.107.179-.74.382-.978a.2.2,0,0,1,.227.083c.37.024.74.119,1.109.179.262-.418.692-.656,1.026-.441v-.072a2.668,2.668,0,0,0,.775.775,2.228,2.228,0,0,0,.477.239l.99.406v3.555ZM109.38,337.3h-.632v-.31A1.316,1.316,0,0,1,109.38,337.3Zm-2.577-14.8a2.093,2.093,0,0,1,1.36.143c-.083.632.024.751-.382,1.133A1.63,1.63,0,0,1,106.8,322.495Zm10.151-23.177c-.394.573-1.372.453-1.992.417v-.7A6.426,6.426,0,0,1,116.955,299.318Zm2.767-4.533c.549.584.978,1.193.763,1.8s-.37.537-1.026.632c.537-.06.763-1.086.382-1.622a4.948,4.948,0,0,0-.6-.68c-.632-.728.322-.954.334-.883A1,1,0,0,0,119.722,294.785Zm-.274,1.443c-.167.728-1.479.418-1.861.143a1.866,1.866,0,0,0,.751-1.408A6.3,6.3,0,0,1,119.448,296.228Zm6.847,9.817a.656.656,0,0,1-.262-.024.581.581,0,0,1-.131-.048.227.227,0,0,1-.119-.06h0c0,.012,0,.012-.012.012s-.012.024-.024.036c-.012-.036-.036-.072-.048-.107a.661.661,0,0,0-.072-.1l-.012-.012c-.012,0-.012-.012-.024-.012s-.012-.012-.024-.012-.012-.012-.024-.012h0c-.191-.012-.382.334-.692.37-.024,0-.06.012-.084,0a15.522,15.522,0,0,0,.394-1.968c.048.036.107.06.143.083.012,0,.012,0,.024.012a.67.67,0,0,0,.143.048c.012,0,.012.012.024.012.048.012.083.024.131.036h.024a.367.367,0,0,1,.119.012h.024a.446.446,0,0,0,.119-.012h.012a.347.347,0,0,0,.107-.024h0a.424.424,0,0,0,.107-.048h.012a.42.42,0,0,0,.1-.06.012.012,0,0,0,.012-.012c.024-.024.06-.036.083-.06,0-.012.012-.012.024-.024l.072-.072.024-.024.06-.06c.012-.012.024-.036.036-.048l.036-.036c.131-.143.227-.31.346-.441a1.266,1.266,0,0,1,.107-.131c-.036.119-.083.227-.119.346a5.5,5.5,0,0,1,.441-.6,3.062,3.062,0,0,0-.024,1.765l.083.274a.165.165,0,0,1-.036.048c-.012.012-.012.024-.024.036a.249.249,0,0,0-.048.072,2.079,2.079,0,0,1-.716.787c0,.012-.024.024-.048.024h0a.17.17,0,0,0-.072.024c-.024.012-.036.012-.06.024,0-.024.012-.024.024-.048A.476.476,0,0,1,126.295,306.045Zm4.08,3.137a1.3,1.3,0,0,1-.453-.525,1.094,1.094,0,0,1-.107-.274l-1-3.483-.143-.513a1.329,1.329,0,0,1,.25-1.3.732.732,0,0,1,.334-.215l1.849-.573v7A.818.818,0,0,1,130.374,309.182Zm-8.135-17.165.167-.346a.955.955,0,0,1,.155-.155l1.61-1.169a.852.852,0,0,1,.728-.119,1.316,1.316,0,0,1,.775.573l2.3,3.423a1.354,1.354,0,0,1,.155,1.312.748.748,0,0,1-.262.31l-1.61,1.169a.852.852,0,0,1-.728.119,1.353,1.353,0,0,1-.775-.573l-2.3-3.423A1.472,1.472,0,0,1,122.239,292.017Zm-1.539-4.091,1.109,1.718-.6,1.264a1.9,1.9,0,0,0-.155.262,2.832,2.832,0,0,0,.262,2.8l2.3,3.424a2.766,2.766,0,0,0,1.6,1.157.6.6,0,0,0,.155.024,7.176,7.176,0,0,0-.2,1.324,7.712,7.712,0,0,1-1.121.7c-1,.644-2.207,2.863-3.364,1.956a2.113,2.113,0,0,0,1.252-2.386c-.632.131-.823.763-1.742.549a2.7,2.7,0,0,0-.37-1.694c-.394-.024-.429.37-.5.7-.346-.036-.847-.119-1.491-.143a4.268,4.268,0,0,1,0-1.837c1.873.728,3.376-.036,3.125-1.825-.143-.966-1.157-1.169-.99-2.4-.429.012-1.336,0-1.491.7-1.587-1.443-2.66-3.447-5.714-3.245-.06-.5.441-.346.382-.835-1.169.083-2.4.107-2.624,1.252-.394.036-.3-.5-.5-.7-.608.155-.37,1.3-.131,1.694-.453.2-.99-.155-1.622-.143a.9.9,0,0,0,.37,1.133c-.036.322-.549.083-.632,0-.143.763.3.883.37,1.408-.394-.119-.465.131-.62.286-.048.608.692.346.62.99a2.054,2.054,0,0,0,.608,3.233c-.1.895-.883.072-1.121-.143a1.434,1.434,0,0,0,.859,1.968c-.453,1.217.346,1.73.25,2.672.382.1.453-.143.74-.143-.1,1.038.549,1.252.489,2.254.465,0,.489-.477,1.121-.286,0,1.312.751,1.765,1.36,2.4a2.557,2.557,0,0,1-.382.835,1.28,1.28,0,0,0,1.241.99c-1.92,3.364-2.183,8.72-5.75,10.533a1.144,1.144,0,0,0-.37-1.408c-.549-.048-.25.847-.5,1.121-1.408.262-1.3-2.064-.74-2.815a2.742,2.742,0,0,1,1.252-.131,5.561,5.561,0,0,0,1-3.805c2.35-2.517,1.777-8.445-1.2-9.71-.036-.513.346-.549.37-.99-.525-.394-.871.453-1.241.7-.3-.191-.859-.072-1.121-.3-.489-.716-.036-1.264.25-1.825-.608-1-1.61-.644-1.968.227V287.926Zm-16.1,18.215c-.06-.3-.322-.525-.429-.811a2.156,2.156,0,0,0,.573-.012c.179-.012.656-.012.68-.573l.012.012c.024,0,2.183-.2,3.233.966a3.1,3.1,0,0,1,.561,2.147c-.036-.083-.239-.239-.262-.262a1.579,1.579,0,0,0-.978-.608,1.646,1.646,0,0,0-.74.083,4.263,4.263,0,0,1-1.1.143c-.286-.012-.513-.191-.68.119-.036.06-.083.37-.143.417a.582.582,0,0,1-.573.072.483.483,0,0,1-.274-.358C104.382,307.059,104.68,306.546,104.6,306.141Zm-.477.453a.98.98,0,0,0-.251.417.558.558,0,0,1-.334.024V305.95A1.82,1.82,0,0,0,104.119,306.594Zm-.585-2.911v-1.706a2.728,2.728,0,0,1,.1.668A9.045,9.045,0,0,1,103.535,303.683Zm.537.477c0-.119,0-.239.012-.37.012-.06.084-1.288.3-1.348.286-.06.406.632.525.811.382.549,1.109.632,1.682.835a2.31,2.31,0,0,1,1.646.942,1.553,1.553,0,0,1,.119.179,5.274,5.274,0,0,0-2.946-.668C105.3,303.743,104.465,303.994,104.072,304.161Zm-.537,4.139a2.094,2.094,0,0,0,2.7-.429c.477.394.573,1.229,1.229,1.408.608-.346-.37-1.062.131-1.682,1.92.119,1.026,3.674.107,4.223-.06-.37.7-1.241.25-2.111a23.555,23.555,0,0,0-1.742,2.254c-.549.012-1.1.024-1.121-.573.394-.072.441.262.871.143.072-.919-.155-1.169-.62-1.276-1.694-.346-1.121,3.662.489,3.662-.763.382-.954-.322-1.742-.286a1.376,1.376,0,0,0,1.241,1.551c-1.443,2.3-1.539,6.656,1.336,7.181.215,1.336-.191,1.36-.382,2.4-.573-.2-.751-.835-1.36-.99-.417-.012-.549.322-.751.561.2.429.895.286,1.121.7-.215.31-.2,1.264.119,1.408-1.085.358-.847,2.231-1.753,2.8-.107.632.2.8.25,1.264a.9.9,0,0,1-.382-.083V308.3Zm.048,27.853a3.564,3.564,0,0,0,.8.394,5.069,5.069,0,0,1,1.1.74h-1.742C103.678,336.928,103.618,336.546,103.583,336.153Zm39.972,13.825c-8.433,2.433-11.07,5.392-12.3,7.157l-.024.06-.012-.012a.012.012,0,0,1-.012.012l-.024-.06c-1.229-1.753-3.865-4.724-12.3-7.157-7.694-2.219-13.384-5.976-14.934-11.7h54.525C156.939,344.014,151.249,347.759,143.555,349.978ZM158.919,335a12.061,12.061,0,0,1-.215,2.3h-2.171V287.914h2.386Z" transform="translate(-102.7 -286.9)" fill="url(#linear-gradient)"/>
      </g>
    </g>
  </g>
  <g id="XMLID_2_" transform="translate(32.899)">
    <path id="XMLID_3_" d="M283.649,12.37l-4.843,2.541.919-5.392L275.8,5.7l5.427-.787L283.649,0l2.422,4.915,5.416.787-3.924,3.817.93,5.392Z" transform="translate(-275.8)" fill="url(#linear-gradient)"/>
  </g>
</svg>
